<?xml version="1.0" encoding="UTF-8"?>
<svg xmlns="http://www.w3.org/2000/svg"
     xmlns:xlink="http://www.w3.org/1999/xlink"
     xmlns:gadfly="http://www.gadflyjl.org/ns"
     version="1.2"
     width="203.2mm" height="101.6mm" viewBox="0 0 203.2 101.6"
     stroke="none"
     fill="#000000"
     stroke-width="0.3"
     font-size="3.88"
>
<defs>
  <marker id="arrow" markerWidth="15" markerHeight="7" refX="5" refY="3.5" orient="auto" markerUnits="strokeWidth">
    <path d="M0,0 L15,3.5 L0,7 z" stroke="context-stroke" fill="context-stroke"/>
  </marker>
</defs>
<g class="plotroot xscalable yscalable" id="img-750ca03b-1">
  <g font-size="3.88" font-family="'PT Sans','Helvetica Neue','Helvetica',sans-serif" fill="#564A55" stroke="#000000" stroke-opacity="0.000" id="img-750ca03b-2">
    <g transform="translate(98.94,89.99)">
      <g class="primitive">
        <text text-anchor="middle" dy="0.6em">log₁₀(E) (eV)</text>
      </g>
    </g>
  </g>
  <g class="guide xlabels" font-size="2.82" font-family="'PT Sans Caption','Helvetica Neue','Helvetica',sans-serif" fill="#6C606B" id="img-750ca03b-3">
    <g transform="translate(31.67,83.32)">
      <g class="primitive">
        <text text-anchor="middle" dy="0.6em">2</text>
      </g>
    </g>
    <g transform="translate(72.43,83.32)">
      <g class="primitive">
        <text text-anchor="middle" dy="0.6em">3</text>
      </g>
    </g>
    <g transform="translate(113.19,83.32)">
      <g class="primitive">
        <text text-anchor="middle" dy="0.6em">4</text>
      </g>
    </g>
    <g transform="translate(153.95,83.32)">
      <g class="primitive">
        <text text-anchor="middle" dy="0.6em">5</text>
      </g>
    </g>
  </g>
  <g class="guide colorkey" id="img-750ca03b-4">
    <g fill="#4C404B" font-size="2.82" font-family="'PT Sans','Helvetica Neue','Helvetica',sans-serif" id="img-750ca03b-5">
      <g transform="translate(185.11,43.58)" id="img-750ca03b-6">
        <g class="primitive">
          <text dy="0.35em">[μ/ρ]ₚₑ</text>
        </g>
      </g>
      <g transform="translate(185.11,47.21)" id="img-750ca03b-7">
        <g class="primitive">
          <text dy="0.35em">[μ/ρ]ci</text>
        </g>
      </g>
      <g transform="translate(185.11,50.83)" id="img-750ca03b-8">
        <g class="primitive">
          <text dy="0.35em">[μ/ρ]ₜₒₜ</text>
        </g>
      </g>
      <g transform="translate(185.11,54.46)" id="img-750ca03b-9">
        <g class="primitive">
          <text dy="0.35em">[μ/ρ]ₖ</text>
        </g>
      </g>
    </g>
    <g stroke-width="0.3" id="img-750ca03b-10">
      <g stroke="#FFFFFF" fill-opacity="1" fill="#FFA500" id="img-750ca03b-11">
        <g transform="translate(182.3,54.46)" id="img-750ca03b-12">
          <circle cx="0" cy="0" r="0.9" class="primitive"/>
        </g>
      </g>
      <g stroke="#FFFFFF" fill-opacity="1" fill="#0000FF" id="img-750ca03b-13">
        <g transform="translate(182.3,50.83)" id="img-750ca03b-14">
          <circle cx="0" cy="0" r="0.9" class="primitive"/>
        </g>
      </g>
      <g stroke="#FFFFFF" fill-opacity="1" fill="#008000" id="img-750ca03b-15">
        <g transform="translate(182.3,47.21)" id="img-750ca03b-16">
          <circle cx="0" cy="0" r="0.9" class="primitive"/>
        </g>
      </g>
      <g stroke="#FFFFFF" fill-opacity="1" fill="#FF0000" id="img-750ca03b-17">
        <g transform="translate(182.3,43.58)" id="img-750ca03b-18">
          <circle cx="0" cy="0" r="0.9" class="primitive"/>
        </g>
      </g>
    </g>
    <g fill="#362A35" font-size="3.88" font-family="'PT Sans','Helvetica Neue','Helvetica',sans-serif" stroke="#000000" stroke-opacity="0.000" id="img-750ca03b-19">
      <g transform="translate(181.49,40.27)" id="img-750ca03b-20">
        <g class="primitive">
          <text dy="-0em">Type</text>
        </g>
      </g>
    </g>
  </g>
  <g clip-path="url(#img-750ca03b-21)">
    <g id="img-750ca03b-22">
      <g pointer-events="visible" stroke-width="0.3" fill="#000000" fill-opacity="0.000" stroke="#000000" stroke-opacity="0.000" class="guide background" id="img-750ca03b-23">
        <g transform="translate(98.94,46.46)" id="img-750ca03b-24">
          <path d="M-81.54,-35.85 L 81.54 -35.85 81.54 35.85 -81.54 35.85 z" class="primitive"/>
        </g>
      </g>
      <g class="guide ygridlines xfixed" stroke-dasharray="0.5,0.5" stroke-width="0.2" stroke="#D0D0E0" id="img-750ca03b-25">
        <g transform="translate(98.94,80.32)" id="img-750ca03b-26">
          <path fill="none" d="M-81.54,0 L 81.54 0" class="primitive"/>
        </g>
        <g transform="translate(98.94,60.71)" id="img-750ca03b-27">
          <path fill="none" d="M-81.54,0 L 81.54 0" class="primitive"/>
        </g>
        <g transform="translate(98.94,41.1)" id="img-750ca03b-28">
          <path fill="none" d="M-81.54,0 L 81.54 0" class="primitive"/>
        </g>
        <g transform="translate(98.94,21.5)" id="img-750ca03b-29">
          <path fill="none" d="M-81.54,0 L 81.54 0" class="primitive"/>
        </g>
      </g>
      <g class="guide xgridlines yfixed" stroke-dasharray="0.5,0.5" stroke-width="0.2" stroke="#D0D0E0" id="img-750ca03b-30">
        <g transform="translate(31.67,46.46)" id="img-750ca03b-31">
          <path fill="none" d="M0,-35.85 L 0 35.85" class="primitive"/>
        </g>
        <g transform="translate(72.43,46.46)" id="img-750ca03b-32">
          <path fill="none" d="M0,-35.85 L 0 35.85" class="primitive"/>
        </g>
        <g transform="translate(113.19,46.46)" id="img-750ca03b-33">
          <path fill="none" d="M0,-35.85 L 0 35.85" class="primitive"/>
        </g>
        <g transform="translate(153.95,46.46)" id="img-750ca03b-34">
          <path fill="none" d="M0,-35.85 L 0 35.85" class="primitive"/>
        </g>
      </g>
      <g class="plotpanel" id="img-750ca03b-35">
        <metadata>
          <boundingbox value="17.39833333333334mm 10.611666666666665mm 163.08833333333334mm 71.70333333333333mm"/>
          <unitbox value="1.6499017929189828 5.1106292152006665 4.001226409826016 -7.314654729481207"/>
        </metadata>
        <g stroke-width="0.3" fill="#000000" fill-opacity="0.000" class="geometry" id="img-750ca03b-36">
          <g class="color_RGB{N0f8}(1.0,0.647,0.0)" stroke-dasharray="none" stroke="#FFA500" id="img-750ca03b-37">
            <g transform="translate(114.6,60.19)" id="img-750ca03b-38">
              <path fill="none" d="M-63.89,-44.97 L -63.25 -44.66 -62.61 -44.34 -61.97 -44.02 -61.34 -43.69 -60.7 -43.35 -60.06 -43 -59.42 -42.65 -58.78 -42.29 -58.14 -41.92 -57.5 -41.55 -56.86 -41.17 -56.22 -40.79 -55.59 -40.41 -54.95 -40.02 -54.31 -39.63 -53.67 -39.24 -53.03 -38.84 -52.39 -38.44 -51.75 -38.04 -51.11 -37.64 -50.47 -37.23 -49.83 -36.82 -49.2 -36.41 -48.56 -36 -47.92 -35.59 -47.28 -35.18 -46.64 -34.76 -46 -34.34 -45.36 -33.92 -44.72 -33.5 -44.08 -33.08 -43.45 -32.65 -42.81 -32.23 -42.17 -31.8 -41.53 -31.37 -40.89 -30.94 -40.25 -30.51 -39.61 -30.07 -38.97 -29.62 -38.33 -29.17 -37.7 -28.72 -37.06 -28.27 -36.42 -27.82 -35.78 -27.37 -35.14 -26.92 -34.5 -26.47 -33.86 -26.02 -33.22 -25.57 -32.58 -25.12 -31.95 -24.67 -31.31 -24.22 -30.67 -23.77 -30.03 -23.32 -29.39 -22.87 -28.75 -22.42 -28.11 -21.97 -27.47 -21.52 -26.83 -21.07 -26.2 -20.62 -25.56 -20.17 -24.92 -19.72 -24.28 -19.27 -23.64 -18.82 -23 -18.37 -22.36 -17.9 -21.72 -17.44 -21.08 -16.96 -20.45 -16.49 -19.81 -16.02 -19.17 -15.54 -18.53 -15.07 -17.89 -14.6 -17.25 -14.13 -16.61 -13.65 -15.97 -13.18 -15.33 -12.71 -14.69 -12.24 -14.06 -11.76 -13.42 -11.29 -12.78 -10.82 -12.14 -10.34 -11.5 -9.85 -10.86 -9.37 -10.22 -8.88 -9.58 -8.4 -8.94 -7.91 -8.31 -7.42 -7.67 -6.94 -7.03 -6.45 -6.39 -5.97 -5.75 -5.48 -5.11 -5 -4.47 -4.51 -3.83 -4.02 -3.19 -3.53 -2.56 -3.03 -1.92 -2.53 -1.28 -2.03 -0.64 -1.53 0 -1.03 0.64 -0.53 1.28 -0.04 1.92 0.46 2.56 0.96 3.19 1.46 3.83 1.96 4.47 2.46 5.11 2.96 5.75 3.46 6.39 3.96 7.03 4.46 7.67 4.96 8.31 5.46 8.94 5.96 9.58 6.46 10.22 6.96 10.86 7.46 11.5 7.96 12.14 8.46 12.78 8.96 13.42 9.46 14.06 9.96 14.69 10.46 15.33 10.96 15.97 11.46 16.61 11.97 17.25 12.48 17.89 12.99 18.53 13.49 19.17 14 19.81 14.51 20.45 15.02 21.08 15.53 21.72 16.04 22.36 16.55 23 17.06 23.64 17.57 24.28 18.08 24.92 18.59 25.56 19.1 26.2 19.61 26.83 20.12 27.47 20.62 28.11 21.13 28.75 21.64 29.39 22.15 30.03 22.66 30.67 23.17 31.31 23.68 31.95 24.19 32.58 24.7 33.22 25.21 33.86 25.72 34.5 26.23 35.14 26.73 35.78 27.24 36.42 27.75 37.06 28.26 37.7 28.76 38.33 29.27 38.97 29.78 39.61 30.29 40.25 30.79 40.89 31.3 41.53 31.81 42.17 32.31 42.81 32.82 43.45 33.33 44.08 33.83 44.72 34.34 45.36 34.85 46 35.36 46.64 35.86 47.28 36.37 47.92 36.88 48.56 37.38 49.2 37.89 49.83 38.4 50.47 38.91 51.11 39.41 51.75 39.92 52.39 40.43 53.03 40.93 53.67 41.44 54.31 41.95 54.95 42.46 55.59 42.96 56.22 43.47 56.86 43.98 57.5 44.48 58.14 44.99 58.78 45.5 59.42 46 60.06 46.51 60.7 47.02 61.34 47.53 61.97 48.03 62.61 48.54 63.25 49.05 63.89 49.55" class="primitive"/>
            </g>
          </g>
        </g>
        <g stroke-width="0.3" fill="#000000" fill-opacity="0.000" class="geometry" id="img-750ca03b-39">
          <g class="color_RGB{N0f8}(0.0,0.0,1.0)" stroke-dasharray="none" stroke="#0000FF" id="img-750ca03b-40">
            <g transform="translate(98.94,45.22)" id="img-750ca03b-41">
              <path fill="none" d="M-79.54,-32.61 L -78.91 -32.36 -78.27 -32.11 -77.63 -31.85 -76.99 -31.58 -76.35 -31.32 -75.71 -31.05 -75.07 -30.78 -74.43 -30.5 -73.79 -30.22 -73.16 -29.93 -72.52 -29.65 -71.88 -29.36 -71.24 -29.07 -70.6 -28.77 -69.96 -28.47 -69.32 -28.17 -68.68 -27.87 -68.04 -27.56 -67.4 -27.25 -66.77 -26.94 -66.13 -26.62 -65.49 -26.3 -64.85 -25.98 -64.21 -25.66 -63.57 -25.33 -62.93 -24.99 -62.29 -24.66 -61.65 -24.32 -61.02 -23.97 -60.38 -23.63 -59.74 -23.29 -59.1 -22.94 -58.46 -22.6 -57.82 -22.25 -57.18 -21.9 -56.54 -21.55 -55.9 -21.2 -55.27 -20.85 -54.63 -20.49 -53.99 -20.14 -53.35 -19.79 -52.71 -19.43 -52.07 -19.07 -51.43 -18.72 -50.79 -18.36 -50.15 -18 -49.52 -17.64 -48.88 -17.29 -48.24 -30.2 -47.6 -29.88 -46.96 -29.56 -46.32 -29.24 -45.68 -28.91 -45.04 -28.57 -44.4 -28.22 -43.77 -27.86 -43.13 -27.5 -42.49 -27.14 -41.85 -26.77 -41.21 -26.39 -40.57 -26.01 -39.93 -25.62 -39.29 -25.24 -38.65 -24.84 -38.02 -24.45 -37.38 -24.05 -36.74 -23.66 -36.1 -23.25 -35.46 -22.85 -34.82 -22.45 -34.18 -22.04 -33.54 -21.63 -32.9 -21.22 -32.26 -20.81 -31.63 -20.39 -30.99 -19.98 -30.35 -19.56 -29.71 -19.14 -29.07 -18.72 -28.43 -18.3 -27.79 -17.88 -27.15 -17.45 -26.51 -17.03 -25.88 -16.6 -25.24 -16.17 -24.6 -15.73 -23.96 -15.29 -23.32 -14.84 -22.68 -14.4 -22.04 -13.95 -21.4 -13.5 -20.76 -13.05 -20.13 -12.6 -19.49 -12.15 -18.85 -11.7 -18.21 -11.25 -17.57 -10.8 -16.93 -10.35 -16.29 -9.91 -15.65 -9.46 -15.01 -9.01 -14.38 -8.56 -13.74 -8.11 -13.1 -7.66 -12.46 -7.21 -11.82 -6.77 -11.18 -6.32 -10.54 -5.87 -9.9 -5.42 -9.26 -4.98 -8.63 -4.53 -7.99 -4.08 -7.35 -3.63 -6.71 -3.17 -6.07 -2.71 -5.43 -2.24 -4.79 -1.77 -4.15 -1.3 -3.51 -0.83 -2.88 -0.36 -2.24 0.1 -1.6 0.57 -0.96 1.04 -0.32 1.5 0.32 1.97 0.96 2.43 1.6 2.89 2.24 3.36 2.88 3.82 3.51 4.29 4.15 4.76 4.79 5.23 5.43 5.7 6.07 6.17 6.71 6.63 7.35 7.1 7.99 7.56 8.63 8.02 9.26 8.48 9.9 8.94 10.54 9.39 11.18 9.84 11.82 10.29 12.46 10.74 13.1 11.19 13.74 11.64 14.38 12.08 15.01 12.52 15.65 12.96 16.29 13.38 16.93 13.8 17.57 14.22 18.21 14.63 18.85 15.02 19.49 15.42 20.13 15.79 20.76 16.17 21.4 16.53 22.04 16.88 22.68 17.22 23.32 17.55 23.96 17.87 24.6 18.17 25.24 18.47 25.88 18.75 26.51 19.02 27.15 19.27 27.79 19.52 28.43 19.75 29.07 19.97 29.71 20.18 30.35 20.38 30.99 20.56 31.63 20.74 32.26 20.9 32.9 21.06 33.54 21.21 34.18 21.34 34.82 21.47 35.46 21.59 36.1 21.71 36.74 21.81 37.38 21.91 38.02 22.01 38.65 22.09 39.29 22.18 39.93 22.26 40.57 22.33 41.21 22.4 41.85 22.47 42.49 22.54 43.13 22.6 43.77 22.66 44.4 22.72 45.04 22.77 45.68 22.83 46.32 22.88 46.96 22.94 47.6 22.99 48.24 23.04 48.88 23.09 49.52 23.14 50.15 23.18 50.79 23.23 51.43 23.28 52.07 23.33 52.71 23.37 53.35 23.42 53.99 23.47 54.63 23.52 55.27 23.57 55.9 23.61 56.54 23.66 57.18 23.71 57.82 23.76 58.46 23.81 59.1 23.86 59.74 23.9 60.38 23.95 61.02 24 61.65 24.06 62.29 24.11 62.93 24.16 63.57 24.21 64.21 24.26 64.85 24.31 65.49 24.36 66.13 24.42 66.77 24.47 67.4 24.52 68.04 24.58 68.68 24.63 69.32 24.69 69.96 24.74 70.6 24.8 71.24 24.85 71.88 24.91 72.52 24.96 73.16 25.02 73.79 25.08 74.43 25.13 75.07 25.19 75.71 25.25 76.35 25.3 76.99 25.36 77.63 25.42 78.27 25.48 78.91 25.53 79.54 25.59" class="primitive"/>
            </g>
          </g>
        </g>
        <g stroke-width="0.3" fill="#000000" fill-opacity="0.000" class="geometry" id="img-750ca03b-42">
          <g class="color_RGB{N0f8}(0.0,0.502,0.0)" stroke-dasharray="none" stroke="#008000" id="img-750ca03b-43">
            <g transform="translate(98.94,64.9)" id="img-750ca03b-44">
              <path fill="none" d="M-79.54,3.93 L -78.91 3.67 -78.27 3.41 -77.63 3.15 -76.99 2.9 -76.35 2.66 -75.71 2.41 -75.07 2.17 -74.43 1.94 -73.79 1.71 -73.16 1.49 -72.52 1.26 -71.88 1.05 -71.24 0.83 -70.6 0.63 -69.96 0.42 -69.32 0.22 -68.68 0.02 -68.04 -0.17 -67.4 -0.36 -66.77 -0.54 -66.13 -0.72 -65.49 -0.9 -64.85 -1.07 -64.21 -1.24 -63.57 -1.4 -62.93 -1.56 -62.29 -1.72 -61.65 -1.87 -61.02 -2.02 -60.38 -2.17 -59.74 -2.31 -59.1 -2.44 -58.46 -2.58 -57.82 -2.71 -57.18 -2.83 -56.54 -2.95 -55.9 -3.07 -55.27 -3.19 -54.63 -3.3 -53.99 -3.4 -53.35 -3.51 -52.71 -3.61 -52.07 -3.7 -51.43 -3.8 -50.79 -3.88 -50.15 -3.97 -49.52 -4.05 -48.88 -4.13 -48.24 -4.2 -47.6 -4.27 -46.96 -4.34 -46.32 -4.4 -45.68 -4.46 -45.04 -4.52 -44.4 -4.57 -43.77 -4.62 -43.13 -4.67 -42.49 -4.71 -41.85 -4.75 -41.21 -4.79 -40.57 -4.82 -39.93 -4.85 -39.29 -4.88 -38.65 -4.9 -38.02 -4.92 -37.38 -4.94 -36.74 -4.95 -36.1 -4.96 -35.46 -4.97 -34.82 -4.97 -34.18 -4.97 -33.54 -4.97 -32.9 -4.97 -32.26 -4.96 -31.63 -4.95 -30.99 -4.93 -30.35 -4.92 -29.71 -4.9 -29.07 -4.87 -28.43 -4.85 -27.79 -4.82 -27.15 -4.79 -26.51 -4.75 -25.88 -4.72 -25.24 -4.68 -24.6 -4.63 -23.96 -4.59 -23.32 -4.54 -22.68 -4.49 -22.04 -4.44 -21.4 -4.38 -20.76 -4.32 -20.13 -4.26 -19.49 -4.2 -18.85 -4.14 -18.21 -4.07 -17.57 -4 -16.93 -3.93 -16.29 -3.85 -15.65 -3.78 -15.01 -3.7 -14.38 -3.62 -13.74 -3.54 -13.1 -3.45 -12.46 -3.37 -11.82 -3.28 -11.18 -3.19 -10.54 -3.1 -9.9 -3.01 -9.26 -2.92 -8.63 -2.82 -7.99 -2.72 -7.35 -2.63 -6.71 -2.53 -6.07 -2.43 -5.43 -2.33 -4.79 -2.22 -4.15 -2.12 -3.51 -2.02 -2.88 -1.91 -2.24 -1.81 -1.6 -1.7 -0.96 -1.6 -0.32 -1.49 0.32 -1.39 0.96 -1.28 1.6 -1.17 2.24 -1.07 2.88 -0.96 3.51 -0.86 4.15 -0.75 4.79 -0.65 5.43 -0.55 6.07 -0.44 6.71 -0.34 7.35 -0.24 7.99 -0.14 8.63 -0.04 9.26 0.06 9.9 0.15 10.54 0.25 11.18 0.34 11.82 0.43 12.46 0.52 13.1 0.61 13.74 0.7 14.38 0.79 15.01 0.87 15.65 0.95 16.29 1.03 16.93 1.11 17.57 1.18 18.21 1.26 18.85 1.33 19.49 1.4 20.13 1.47 20.76 1.54 21.4 1.6 22.04 1.67 22.68 1.73 23.32 1.79 23.96 1.85 24.6 1.9 25.24 1.96 25.88 2.01 26.51 2.07 27.15 2.12 27.79 2.17 28.43 2.21 29.07 2.26 29.71 2.31 30.35 2.35 30.99 2.4 31.63 2.44 32.26 2.48 32.9 2.52 33.54 2.57 34.18 2.61 34.82 2.65 35.46 2.69 36.1 2.72 36.74 2.76 37.38 2.8 38.02 2.84 38.65 2.88 39.29 2.91 39.93 2.95 40.57 2.99 41.21 3.03 41.85 3.06 42.49 3.1 43.13 3.14 43.77 3.18 44.4 3.22 45.04 3.25 45.68 3.29 46.32 3.33 46.96 3.37 47.6 3.41 48.24 3.45 48.88 3.49 49.52 3.53 50.15 3.57 50.79 3.61 51.43 3.65 52.07 3.7 52.71 3.74 53.35 3.78 53.99 3.83 54.63 3.87 55.27 3.91 55.9 3.96 56.54 4.01 57.18 4.05 57.82 4.1 58.46 4.14 59.1 4.19 59.74 4.24 60.38 4.29 61.02 4.34 61.65 4.39 62.29 4.44 62.93 4.49 63.57 4.54 64.21 4.59 64.85 4.64 65.49 4.69 66.13 4.74 66.77 4.8 67.4 4.85 68.04 4.9 68.68 4.96 69.32 5.01 69.96 5.07 70.6 5.12 71.24 5.18 71.88 5.23 72.52 5.29 73.16 5.34 73.79 5.4 74.43 5.46 75.07 5.51 75.71 5.57 76.35 5.63 76.99 5.68 77.63 5.74 78.27 5.8 78.91 5.86 79.54 5.91" class="primitive"/>
            </g>
          </g>
        </g>
        <g stroke-width="0.3" fill="#000000" fill-opacity="0.000" class="geometry" id="img-750ca03b-45">
          <g class="color_RGB{N0f8}(1.0,0.0,0.0)" stroke-dasharray="none" stroke="#FF0000" id="img-750ca03b-46">
            <g transform="translate(98.94,52.11)" id="img-750ca03b-47">
              <path fill="none" d="M-79.54,-39.5 L -78.91 -39.25 -78.27 -38.99 -77.63 -38.73 -76.99 -38.47 -76.35 -38.21 -75.71 -37.93 -75.07 -37.66 -74.43 -37.38 -73.79 -37.11 -73.16 -36.82 -72.52 -36.54 -71.88 -36.25 -71.24 -35.95 -70.6 -35.66 -69.96 -35.36 -69.32 -35.06 -68.68 -34.75 -68.04 -34.44 -67.4 -34.13 -66.77 -33.82 -66.13 -33.51 -65.49 -33.19 -64.85 -32.87 -64.21 -32.55 -63.57 -32.21 -62.93 -31.88 -62.29 -31.54 -61.65 -31.2 -61.02 -30.86 -60.38 -30.52 -59.74 -30.17 -59.1 -29.83 -58.46 -29.48 -57.82 -29.13 -57.18 -28.79 -56.54 -28.44 -55.9 -28.09 -55.27 -27.73 -54.63 -27.38 -53.99 -27.03 -53.35 -26.67 -52.71 -26.32 -52.07 -25.96 -51.43 -25.6 -50.79 -25.25 -50.15 -24.89 -49.52 -24.53 -48.88 -24.17 -48.24 -37.08 -47.6 -36.77 -46.96 -36.45 -46.32 -36.13 -45.68 -35.79 -45.04 -35.45 -44.4 -35.11 -43.77 -34.75 -43.13 -34.39 -42.49 -34.02 -41.85 -33.65 -41.21 -33.27 -40.57 -32.89 -39.93 -32.51 -39.29 -32.12 -38.65 -31.73 -38.02 -31.34 -37.38 -30.94 -36.74 -30.54 -36.1 -30.14 -35.46 -29.74 -34.82 -29.33 -34.18 -28.92 -33.54 -28.52 -32.9 -28.1 -32.26 -27.69 -31.63 -27.28 -30.99 -26.86 -30.35 -26.44 -29.71 -26.03 -29.07 -25.61 -28.43 -25.18 -27.79 -24.76 -27.15 -24.34 -26.51 -23.91 -25.88 -23.48 -25.24 -23.05 -24.6 -22.62 -23.96 -22.18 -23.32 -21.73 -22.68 -21.28 -22.04 -20.83 -21.4 -20.38 -20.76 -19.93 -20.13 -19.48 -19.49 -19.03 -18.85 -18.58 -18.21 -18.13 -17.57 -17.68 -16.93 -17.23 -16.29 -16.78 -15.65 -16.33 -15.01 -15.88 -14.38 -15.43 -13.74 -14.98 -13.1 -14.53 -12.46 -14.08 -11.82 -13.64 -11.18 -13.19 -10.54 -12.74 -9.9 -12.29 -9.26 -11.84 -8.63 -11.39 -7.99 -10.94 -7.35 -10.48 -6.71 -10.02 -6.07 -9.55 -5.43 -9.08 -4.79 -8.61 -4.15 -8.14 -3.51 -7.66 -2.88 -7.19 -2.24 -6.72 -1.6 -6.25 -0.96 -5.77 -0.32 -5.3 0.32 -4.83 0.96 -4.36 1.6 -3.88 2.24 -3.41 2.88 -2.94 3.51 -2.46 4.15 -1.97 4.79 -1.49 5.43 -1 6.07 -0.52 6.71 -0.03 7.35 0.45 7.99 0.94 8.63 1.43 9.26 1.91 9.9 2.4 10.54 2.88 11.18 3.37 11.82 3.85 12.46 4.34 13.1 4.84 13.74 5.34 14.38 5.84 15.01 6.34 15.65 6.84 16.29 7.34 16.93 7.84 17.57 8.34 18.21 8.84 18.85 9.34 19.49 9.84 20.13 10.33 20.76 10.83 21.4 11.33 22.04 11.83 22.68 12.33 23.32 12.83 23.96 13.33 24.6 13.83 25.24 14.33 25.88 14.83 26.51 15.33 27.15 15.83 27.79 16.33 28.43 16.83 29.07 17.33 29.71 17.82 30.35 18.32 30.99 18.82 31.63 19.33 32.26 19.83 32.9 20.34 33.54 20.85 34.18 21.36 34.82 21.87 35.46 22.37 36.1 22.88 36.74 23.39 37.38 23.9 38.02 24.41 38.65 24.92 39.29 25.43 39.93 25.94 40.57 26.44 41.21 26.95 41.85 27.46 42.49 27.97 43.13 28.48 43.77 28.99 44.4 29.5 45.04 30.01 45.68 30.51 46.32 31.02 46.96 31.53 47.6 32.04 48.24 32.55 48.88 33.06 49.52 33.57 50.15 34.07 50.79 34.58 51.43 35.09 52.07 35.6 52.71 36.1 53.35 36.61 53.99 37.12 54.63 37.62 55.27 38.13 55.9 38.64 56.54 39.14 57.18 39.65 57.82 40.16 58.46 40.66 59.1 41.17 59.74 41.68 60.38 42.18 61.02 42.69 61.65 43.2 62.29 43.7 62.93 44.21 63.57 44.72 64.21 45.22 64.85 45.73 65.49 46.24 66.13 46.74 66.77 47.25 67.4 47.76 68.04 48.26 68.68 48.77 69.32 49.28 69.96 49.78 70.6 50.29 71.24 50.8 71.88 51.3 72.52 51.81 73.16 52.32 73.79 52.82 74.43 53.33 75.07 53.84 75.71 54.34 76.35 54.85 76.99 55.36 77.63 55.86 78.27 56.37 78.91 56.87 79.54 57.38" class="primitive"/>
            </g>
          </g>
        </g>
      </g>
    </g>
  </g>
  <g class="guide ylabels" font-size="2.82" font-family="'PT Sans Caption','Helvetica Neue','Helvetica',sans-serif" fill="#6C606B" id="img-750ca03b-48">
    <g transform="translate(16.4,80.32)" id="img-750ca03b-49">
      <g class="primitive">
        <text text-anchor="end" dy="0.35em">-2</text>
      </g>
    </g>
    <g transform="translate(16.4,60.71)" id="img-750ca03b-50">
      <g class="primitive">
        <text text-anchor="end" dy="0.35em">0</text>
      </g>
    </g>
    <g transform="translate(16.4,41.1)" id="img-750ca03b-51">
      <g class="primitive">
        <text text-anchor="end" dy="0.35em">2</text>
      </g>
    </g>
    <g transform="translate(16.4,21.5)" id="img-750ca03b-52">
      <g class="primitive">
        <text text-anchor="end" dy="0.35em">4</text>
      </g>
    </g>
  </g>
  <g font-size="3.88" font-family="'PT Sans','Helvetica Neue','Helvetica',sans-serif" fill="#564A55" stroke="#000000" stroke-opacity="0.000" id="img-750ca03b-53">
    <g transform="translate(8.81,44.46)" id="img-750ca03b-54">
      <g class="primitive">
        <text text-anchor="middle" dy="0.35em" transform="rotate(-90,0, 2)">log₁₀([μ/ρ]) (g/cm²)</text>
      </g>
    </g>
  </g>
  <g font-size="3.88" font-family="'PT Sans','Helvetica Neue','Helvetica',sans-serif" fill="#564A55" stroke="#000000" stroke-opacity="0.000" id="img-750ca03b-55">
    <g transform="translate(98.94,5)" id="img-750ca03b-56">
      <g class="primitive">
        <text text-anchor="middle" dy="0.6em">Z = 6</text>
      </g>
    </g>
  </g>
</g>
<defs>
  <clipPath id="img-750ca03b-21">
    <path d="M17.4,10.61 L 180.49 10.61 180.49 82.32 17.4 82.32" />
  </clipPath>
</defs>
</svg>
