<?xml version="1.0" encoding="UTF-8"?>
<svg xmlns="http://www.w3.org/2000/svg"
     xmlns:xlink="http://www.w3.org/1999/xlink"
     xmlns:gadfly="http://www.gadflyjl.org/ns"
     version="1.2"
     width="203.2mm" height="101.6mm" viewBox="0 0 203.2 101.6"
     stroke="none"
     fill="#000000"
     stroke-width="0.3"
     font-size="3.88"
>
<defs>
  <marker id="arrow" markerWidth="15" markerHeight="7" refX="5" refY="3.5" orient="auto" markerUnits="strokeWidth">
    <path d="M0,0 L15,3.5 L0,7 z" stroke="context-stroke" fill="context-stroke"/>
  </marker>
</defs>
<g class="plotroot xscalable yscalable" id="img-cffa67c9-1">
  <g font-size="3.88" font-family="'PT Sans','Helvetica Neue','Helvetica',sans-serif" fill="#564A55" stroke="#000000" stroke-opacity="0.000" id="img-cffa67c9-2">
    <g transform="translate(98.94,89.99)">
      <g class="primitive">
        <text text-anchor="middle" dy="0.6em">log₁₀(E) (eV)</text>
      </g>
    </g>
  </g>
  <g class="guide xlabels" font-size="2.82" font-family="'PT Sans Caption','Helvetica Neue','Helvetica',sans-serif" fill="#6C606B" id="img-cffa67c9-3">
    <g transform="translate(31.67,83.32)">
      <g class="primitive">
        <text text-anchor="middle" dy="0.6em">2</text>
      </g>
    </g>
    <g transform="translate(72.43,83.32)">
      <g class="primitive">
        <text text-anchor="middle" dy="0.6em">3</text>
      </g>
    </g>
    <g transform="translate(113.19,83.32)">
      <g class="primitive">
        <text text-anchor="middle" dy="0.6em">4</text>
      </g>
    </g>
    <g transform="translate(153.95,83.32)">
      <g class="primitive">
        <text text-anchor="middle" dy="0.6em">5</text>
      </g>
    </g>
  </g>
  <g class="guide colorkey" id="img-cffa67c9-4">
    <g fill="#4C404B" font-size="2.82" font-family="'PT Sans','Helvetica Neue','Helvetica',sans-serif" id="img-cffa67c9-5">
      <g transform="translate(185.11,43.58)" id="img-cffa67c9-6">
        <g class="primitive">
          <text dy="0.35em">[μ/ρ]ₚₑ</text>
        </g>
      </g>
      <g transform="translate(185.11,47.21)" id="img-cffa67c9-7">
        <g class="primitive">
          <text dy="0.35em">[μ/ρ]ci</text>
        </g>
      </g>
      <g transform="translate(185.11,50.83)" id="img-cffa67c9-8">
        <g class="primitive">
          <text dy="0.35em">[μ/ρ]ₜₒₜ</text>
        </g>
      </g>
      <g transform="translate(185.11,54.46)" id="img-cffa67c9-9">
        <g class="primitive">
          <text dy="0.35em">[μ/ρ]ₖ</text>
        </g>
      </g>
    </g>
    <g stroke-width="0.3" id="img-cffa67c9-10">
      <g stroke="#FFFFFF" fill-opacity="1" fill="#FFA500" id="img-cffa67c9-11">
        <g transform="translate(182.3,54.46)" id="img-cffa67c9-12">
          <circle cx="0" cy="0" r="0.9" class="primitive"/>
        </g>
      </g>
      <g stroke="#FFFFFF" fill-opacity="1" fill="#0000FF" id="img-cffa67c9-13">
        <g transform="translate(182.3,50.83)" id="img-cffa67c9-14">
          <circle cx="0" cy="0" r="0.9" class="primitive"/>
        </g>
      </g>
      <g stroke="#FFFFFF" fill-opacity="1" fill="#008000" id="img-cffa67c9-15">
        <g transform="translate(182.3,47.21)" id="img-cffa67c9-16">
          <circle cx="0" cy="0" r="0.9" class="primitive"/>
        </g>
      </g>
      <g stroke="#FFFFFF" fill-opacity="1" fill="#FF0000" id="img-cffa67c9-17">
        <g transform="translate(182.3,43.58)" id="img-cffa67c9-18">
          <circle cx="0" cy="0" r="0.9" class="primitive"/>
        </g>
      </g>
    </g>
    <g fill="#362A35" font-size="3.88" font-family="'PT Sans','Helvetica Neue','Helvetica',sans-serif" stroke="#000000" stroke-opacity="0.000" id="img-cffa67c9-19">
      <g transform="translate(181.49,40.27)" id="img-cffa67c9-20">
        <g class="primitive">
          <text dy="-0em">Type</text>
        </g>
      </g>
    </g>
  </g>
  <g clip-path="url(#img-cffa67c9-21)">
    <g id="img-cffa67c9-22">
      <g pointer-events="visible" stroke-width="0.3" fill="#000000" fill-opacity="0.000" stroke="#000000" stroke-opacity="0.000" class="guide background" id="img-cffa67c9-23">
        <g transform="translate(98.94,46.46)" id="img-cffa67c9-24">
          <path d="M-81.54,-35.85 L 81.54 -35.85 81.54 35.85 -81.54 35.85 z" class="primitive"/>
        </g>
      </g>
      <g class="guide ygridlines xfixed" stroke-dasharray="0.5,0.5" stroke-width="0.2" stroke="#D0D0E0" id="img-cffa67c9-25">
        <g transform="translate(98.94,80.32)" id="img-cffa67c9-26">
          <path fill="none" d="M-81.54,0 L 81.54 0" class="primitive"/>
        </g>
        <g transform="translate(98.94,61.04)" id="img-cffa67c9-27">
          <path fill="none" d="M-81.54,0 L 81.54 0" class="primitive"/>
        </g>
        <g transform="translate(98.94,41.77)" id="img-cffa67c9-28">
          <path fill="none" d="M-81.54,0 L 81.54 0" class="primitive"/>
        </g>
        <g transform="translate(98.94,22.5)" id="img-cffa67c9-29">
          <path fill="none" d="M-81.54,0 L 81.54 0" class="primitive"/>
        </g>
      </g>
      <g class="guide xgridlines yfixed" stroke-dasharray="0.5,0.5" stroke-width="0.2" stroke="#D0D0E0" id="img-cffa67c9-30">
        <g transform="translate(31.67,46.46)" id="img-cffa67c9-31">
          <path fill="none" d="M0,-35.85 L 0 35.85" class="primitive"/>
        </g>
        <g transform="translate(72.43,46.46)" id="img-cffa67c9-32">
          <path fill="none" d="M0,-35.85 L 0 35.85" class="primitive"/>
        </g>
        <g transform="translate(113.19,46.46)" id="img-cffa67c9-33">
          <path fill="none" d="M0,-35.85 L 0 35.85" class="primitive"/>
        </g>
        <g transform="translate(153.95,46.46)" id="img-cffa67c9-34">
          <path fill="none" d="M0,-35.85 L 0 35.85" class="primitive"/>
        </g>
      </g>
      <g class="plotpanel" id="img-cffa67c9-35">
        <metadata>
          <boundingbox value="17.39833333333334mm 10.611666666666665mm 163.08833333333334mm 71.70333333333333mm"/>
          <unitbox value="1.6499017929189828 5.233188556550335 4.001226409826016 -7.440730669980119"/>
        </metadata>
        <g stroke-width="0.3" fill="#000000" fill-opacity="0.000" class="geometry" id="img-cffa67c9-36">
          <g class="color_RGB{N0f8}(1.0,0.647,0.0)" stroke-dasharray="none" stroke="#FFA500" id="img-cffa67c9-37">
            <g transform="translate(143.03,60.66)" id="img-cffa67c9-38">
              <path fill="none" d="M-35.46,-24.07 L -34.82 -23.64 -34.18 -23.24 -33.54 -22.85 -32.9 -22.47 -32.26 -22.09 -31.63 -21.7 -30.99 -21.3 -30.35 -20.9 -29.71 -20.49 -29.07 -20.09 -28.43 -19.68 -27.79 -19.27 -27.15 -18.87 -26.51 -18.46 -25.88 -18.06 -25.24 -17.65 -24.6 -17.24 -23.96 -16.83 -23.32 -16.42 -22.68 -15.99 -22.04 -15.57 -21.4 -15.14 -20.76 -14.71 -20.13 -14.28 -19.49 -13.85 -18.85 -13.42 -18.21 -13 -17.57 -12.57 -16.93 -12.14 -16.29 -11.71 -15.65 -11.28 -15.01 -10.86 -14.38 -10.43 -13.74 -10 -13.1 -9.57 -12.46 -9.14 -11.82 -8.7 -11.18 -8.26 -10.54 -7.82 -9.9 -7.37 -9.26 -6.92 -8.63 -6.47 -7.99 -6.02 -7.35 -5.56 -6.71 -5.11 -6.07 -4.65 -5.43 -4.2 -4.79 -3.74 -4.15 -3.29 -3.51 -2.83 -2.88 -2.38 -2.24 -1.92 -1.6 -1.47 -0.96 -1.01 -0.32 -0.56 0.32 -0.11 0.96 0.35 1.6 0.8 2.24 1.26 2.88 1.71 3.51 2.17 4.15 2.62 4.79 3.08 5.43 3.53 6.07 3.99 6.71 4.45 7.35 4.9 7.99 5.37 8.63 5.84 9.26 6.31 9.9 6.77 10.54 7.24 11.18 7.71 11.82 8.18 12.46 8.64 13.1 9.11 13.74 9.58 14.38 10.05 15.01 10.51 15.65 10.98 16.29 11.45 16.93 11.91 17.57 12.38 18.21 12.85 18.85 13.32 19.49 13.78 20.13 14.25 20.76 14.72 21.4 15.19 22.04 15.65 22.68 16.12 23.32 16.59 23.96 17.06 24.6 17.52 25.24 17.99 25.88 18.46 26.51 18.93 27.15 19.39 27.79 19.86 28.43 20.33 29.07 20.8 29.71 21.26 30.35 21.73 30.99 22.2 31.63 22.66 32.26 23.13 32.9 23.6 33.54 24.07 34.18 24.53 34.82 25 35.46 25.47" class="primitive"/>
            </g>
          </g>
        </g>
        <g stroke-width="0.3" fill="#000000" fill-opacity="0.000" class="geometry" id="img-cffa67c9-39">
          <g class="color_RGB{N0f8}(0.0,0.0,1.0)" stroke-dasharray="none" stroke="#0000FF" id="img-cffa67c9-40">
            <g transform="translate(98.94,39.63)" id="img-cffa67c9-41">
              <path fill="none" d="M-79.54,-26.19 L -78.91 -26.1 -78.27 -26.01 -77.63 -27.02 -76.99 -26.77 -76.35 -26.53 -75.71 -26.32 -75.07 -26.12 -74.43 -25.93 -73.79 -25.73 -73.16 -25.49 -72.52 -25.25 -71.88 -25.02 -71.24 -24.78 -70.6 -24.55 -69.96 -24.32 -69.32 -24.09 -68.68 -23.86 -68.04 -23.93 -67.4 -23.72 -66.77 -23.51 -66.13 -23.3 -65.49 -23.1 -64.85 -22.9 -64.21 -22.69 -63.57 -22.5 -62.93 -22.3 -62.29 -22.11 -61.65 -21.91 -61.02 -21.72 -60.38 -21.53 -59.74 -21.34 -59.1 -21.15 -58.46 -20.96 -57.82 -20.76 -57.18 -20.57 -56.54 -20.38 -55.9 -20.18 -55.27 -19.98 -54.63 -19.78 -53.99 -19.57 -53.35 -19.36 -52.71 -19.15 -52.07 -18.93 -51.43 -18.71 -50.79 -18.48 -50.15 -18.24 -49.52 -18 -48.88 -17.76 -48.24 -17.5 -47.6 -17.25 -46.96 -16.99 -46.32 -16.72 -45.68 -16.45 -45.04 -16.18 -44.4 -15.9 -43.77 -15.62 -43.13 -15.33 -42.49 -15.04 -41.85 -14.75 -41.21 -14.45 -40.57 -14.15 -39.93 -13.85 -39.29 -13.55 -38.65 -13.24 -38.02 -12.94 -37.38 -12.63 -36.74 -12.32 -36.1 -12.01 -35.46 -11.69 -34.82 -11.38 -34.18 -11.06 -33.54 -10.74 -32.9 -10.43 -32.26 -19.35 -31.63 -18.97 -30.99 -18.6 -30.35 -18.22 -29.71 -17.84 -29.07 -18.03 -28.43 -17.68 -27.79 -17.32 -27.15 -16.97 -26.51 -16.62 -25.88 -16.25 -25.24 -15.89 -24.6 -15.53 -23.96 -15.16 -23.32 -14.79 -22.68 -14.41 -22.04 -14.03 -21.4 -13.64 -20.76 -13.26 -20.13 -12.87 -19.49 -12.48 -18.85 -12.09 -18.21 -11.7 -17.57 -11.31 -16.93 -10.92 -16.29 -10.53 -15.65 -10.14 -15.01 -9.74 -14.38 -9.35 -13.74 -8.96 -13.1 -8.57 -12.46 -8.18 -11.82 -7.8 -11.18 -7.41 -10.54 -7.02 -9.9 -6.64 -9.26 -6.25 -8.63 -5.87 -7.99 -5.48 -7.35 -5.08 -6.71 -4.67 -6.07 -4.25 -5.43 -3.83 -4.79 -3.41 -4.15 -2.98 -3.51 -2.55 -2.88 -2.12 -2.24 -1.7 -1.6 -1.28 -0.96 -0.85 -0.32 -0.43 0.32 -0.01 0.96 0.4 1.6 0.82 2.24 1.24 2.88 1.65 3.51 2.06 4.15 2.47 4.79 2.88 5.43 3.29 6.07 3.69 6.71 4.1 7.35 4.5 7.99 4.9 8.63 -3.57 9.26 -3.15 9.9 -2.75 10.54 -2.36 11.18 -1.98 11.82 -1.59 12.46 -1.21 13.1 -0.8 13.74 -0.4 14.38 0.01 15.01 0.42 15.65 0.83 16.29 1.23 16.93 1.64 17.57 2.05 18.21 2.45 18.85 2.86 19.49 3.26 20.13 3.67 20.76 4.08 21.4 4.51 22.04 4.93 22.68 5.36 23.32 5.78 23.96 6.21 24.6 6.63 25.24 7.06 25.88 7.48 26.51 7.9 27.15 8.33 27.79 8.75 28.43 9.17 29.07 9.59 29.71 10.01 30.35 10.43 30.99 10.85 31.63 11.27 32.26 11.7 32.9 12.13 33.54 12.56 34.18 12.99 34.82 13.42 35.46 13.86 36.1 14.3 36.74 14.73 37.38 15.16 38.02 15.59 38.65 16.02 39.29 16.45 39.93 16.87 40.57 17.29 41.21 17.71 41.85 18.13 42.49 18.54 43.13 18.95 43.77 19.35 44.4 19.76 45.04 20.15 45.68 20.55 46.32 20.93 46.96 21.32 47.6 21.69 48.24 22.06 48.88 22.43 49.52 22.79 50.15 23.14 50.79 23.49 51.43 23.83 52.07 24.16 52.71 24.5 53.35 24.81 53.99 25.13 54.63 25.43 55.27 25.72 55.9 26 56.54 26.27 57.18 26.54 57.82 26.78 58.46 27.03 59.1 27.26 59.74 27.48 60.38 27.69 61.02 27.9 61.65 28.09 62.29 28.28 62.93 28.46 63.57 28.63 64.21 28.79 64.85 28.94 65.49 29.09 66.13 29.23 66.77 29.37 67.4 29.5 68.04 29.62 68.68 29.74 69.32 29.85 69.96 29.96 70.6 30.07 71.24 30.17 71.88 30.27 72.52 30.37 73.16 30.46 73.79 30.56 74.43 30.64 75.07 30.73 75.71 30.82 76.35 30.9 76.99 30.98 77.63 31.07 78.27 31.15 78.91 31.23 79.54 31.3" class="primitive"/>
            </g>
          </g>
        </g>
        <g stroke-width="0.3" fill="#000000" fill-opacity="0.000" class="geometry" id="img-cffa67c9-42">
          <g class="color_RGB{N0f8}(0.0,0.502,0.0)" stroke-dasharray="none" stroke="#008000" id="img-cffa67c9-43">
            <g transform="translate(98.94,62.4)" id="img-cffa67c9-44">
              <path fill="none" d="M-79.54,11.35 L -78.91 10.92 -78.27 10.48 -77.63 10.06 -76.99 9.64 -76.35 9.23 -75.71 8.82 -75.07 8.41 -74.43 8.02 -73.79 7.63 -73.16 7.24 -72.52 6.86 -71.88 6.49 -71.24 6.12 -70.6 5.76 -69.96 5.4 -69.32 5.05 -68.68 4.7 -68.04 4.36 -67.4 4.02 -66.77 3.69 -66.13 3.37 -65.49 3.05 -64.85 2.73 -64.21 2.42 -63.57 2.12 -62.93 1.82 -62.29 1.53 -61.65 1.24 -61.02 0.96 -60.38 0.68 -59.74 0.41 -59.1 0.14 -58.46 -0.12 -57.82 -0.38 -57.18 -0.63 -56.54 -0.88 -55.9 -1.12 -55.27 -1.36 -54.63 -1.59 -53.99 -1.82 -53.35 -2.04 -52.71 -2.26 -52.07 -2.47 -51.43 -2.68 -50.79 -2.88 -50.15 -3.08 -49.52 -3.27 -48.88 -3.46 -48.24 -3.64 -47.6 -3.82 -46.96 -4 -46.32 -4.17 -45.68 -4.33 -45.04 -4.49 -44.4 -4.65 -43.77 -4.8 -43.13 -4.95 -42.49 -5.09 -41.85 -5.23 -41.21 -5.36 -40.57 -5.49 -39.93 -5.61 -39.29 -5.73 -38.65 -5.85 -38.02 -5.96 -37.38 -6.06 -36.74 -6.17 -36.1 -6.27 -35.46 -6.36 -34.82 -6.45 -34.18 -6.53 -33.54 -6.62 -32.9 -6.69 -32.26 -6.77 -31.63 -6.83 -30.99 -6.9 -30.35 -6.96 -29.71 -7.01 -29.07 -7.07 -28.43 -7.11 -27.79 -7.16 -27.15 -7.2 -26.51 -7.24 -25.88 -7.27 -25.24 -7.3 -24.6 -7.32 -23.96 -7.34 -23.32 -7.36 -22.68 -7.37 -22.04 -7.38 -21.4 -7.39 -20.76 -7.39 -20.13 -7.39 -19.49 -7.38 -18.85 -7.37 -18.21 -7.36 -17.57 -7.34 -16.93 -7.32 -16.29 -7.3 -15.65 -7.27 -15.01 -7.24 -14.38 -7.21 -13.74 -7.17 -13.1 -7.13 -12.46 -7.09 -11.82 -7.04 -11.18 -6.99 -10.54 -6.93 -9.9 -6.88 -9.26 -6.81 -8.63 -6.75 -7.99 -6.68 -7.35 -6.61 -6.71 -6.54 -6.07 -6.46 -5.43 -6.38 -4.79 -6.3 -4.15 -6.21 -3.51 -6.13 -2.88 -6.03 -2.24 -5.94 -1.6 -5.84 -0.96 -5.74 -0.32 -5.64 0.32 -5.53 0.96 -5.42 1.6 -5.31 2.24 -5.2 2.88 -5.08 3.51 -4.96 4.15 -4.84 4.79 -4.72 5.43 -4.59 6.07 -4.46 6.71 -4.33 7.35 -4.2 7.99 -4.06 8.63 -3.92 9.26 -3.78 9.9 -3.64 10.54 -3.5 11.18 -3.35 11.82 -3.2 12.46 -3.05 13.1 -2.9 13.74 -2.75 14.38 -2.59 15.01 -2.44 15.65 -2.28 16.29 -2.12 16.93 -1.96 17.57 -1.8 18.21 -1.63 18.85 -1.47 19.49 -1.31 20.13 -1.14 20.76 -0.97 21.4 -0.81 22.04 -0.64 22.68 -0.47 23.32 -0.3 23.96 -0.14 24.6 0.03 25.24 0.2 25.88 0.37 26.51 0.54 27.15 0.7 27.79 0.87 28.43 1.04 29.07 1.2 29.71 1.37 30.35 1.53 30.99 1.69 31.63 1.85 32.26 2.01 32.9 2.17 33.54 2.32 34.18 2.48 34.82 2.63 35.46 2.78 36.1 2.93 36.74 3.07 37.38 3.22 38.02 3.36 38.65 3.5 39.29 3.63 39.93 3.77 40.57 3.9 41.21 4.03 41.85 4.15 42.49 4.28 43.13 4.4 43.77 4.51 44.4 4.63 45.04 4.74 45.68 4.85 46.32 4.95 46.96 5.06 47.6 5.16 48.24 5.26 48.88 5.36 49.52 5.45 50.15 5.54 50.79 5.63 51.43 5.72 52.07 5.8 52.71 5.89 53.35 5.97 53.99 6.05 54.63 6.13 55.27 6.2 55.9 6.28 56.54 6.35 57.18 6.42 57.82 6.49 58.46 6.56 59.1 6.63 59.74 6.7 60.38 6.76 61.02 6.83 61.65 6.9 62.29 6.96 62.93 7.02 63.57 7.09 64.21 7.15 64.85 7.21 65.49 7.28 66.13 7.34 66.77 7.4 67.4 7.46 68.04 7.52 68.68 7.58 69.32 7.65 69.96 7.71 70.6 7.77 71.24 7.83 71.88 7.89 72.52 7.96 73.16 8.02 73.79 8.08 74.43 8.15 75.07 8.21 75.71 8.27 76.35 8.34 76.99 8.4 77.63 8.47 78.27 8.53 78.91 8.6 79.54 8.66" class="primitive"/>
            </g>
          </g>
        </g>
        <g stroke-width="0.3" fill="#000000" fill-opacity="0.000" class="geometry" id="img-cffa67c9-45">
          <g class="color_RGB{N0f8}(1.0,0.0,0.0)" stroke-dasharray="none" stroke="#FF0000" id="img-cffa67c9-46">
            <g transform="translate(98.94,41.03)" id="img-cffa67c9-47">
              <path fill="none" d="M-79.54,-27.59 L -78.91 -27.5 -78.27 -27.4 -77.63 -28.42 -76.99 -28.17 -76.35 -27.92 -75.71 -27.71 -75.07 -27.52 -74.43 -27.32 -73.79 -27.13 -73.16 -26.89 -72.52 -26.65 -71.88 -26.42 -71.24 -26.18 -70.6 -25.95 -69.96 -25.72 -69.32 -25.49 -68.68 -25.26 -68.04 -25.32 -67.4 -25.11 -66.77 -24.9 -66.13 -24.7 -65.49 -24.49 -64.85 -24.29 -64.21 -24.09 -63.57 -23.89 -62.93 -23.7 -62.29 -23.5 -61.65 -23.31 -61.02 -23.12 -60.38 -22.93 -59.74 -22.73 -59.1 -22.54 -58.46 -22.35 -57.82 -22.16 -57.18 -21.97 -56.54 -21.77 -55.9 -21.58 -55.27 -21.38 -54.63 -21.18 -53.99 -20.97 -53.35 -20.76 -52.71 -20.55 -52.07 -20.33 -51.43 -20.1 -50.79 -19.87 -50.15 -19.64 -49.52 -19.4 -48.88 -19.15 -48.24 -18.9 -47.6 -18.64 -46.96 -18.38 -46.32 -18.12 -45.68 -17.85 -45.04 -17.57 -44.4 -17.29 -43.77 -17.01 -43.13 -16.73 -42.49 -16.44 -41.85 -16.14 -41.21 -15.85 -40.57 -15.55 -39.93 -15.25 -39.29 -14.94 -38.65 -14.64 -38.02 -14.33 -37.38 -14.02 -36.74 -13.71 -36.1 -13.4 -35.46 -13.08 -34.82 -12.77 -34.18 -12.45 -33.54 -12.13 -32.9 -11.82 -32.26 -20.75 -31.63 -20.37 -30.99 -19.99 -30.35 -19.62 -29.71 -19.24 -29.07 -19.43 -28.43 -19.07 -27.79 -18.72 -27.15 -18.37 -26.51 -18.01 -25.88 -17.65 -25.24 -17.28 -24.6 -16.92 -23.96 -16.55 -23.32 -16.18 -22.68 -15.81 -22.04 -15.42 -21.4 -15.04 -20.76 -14.65 -20.13 -14.26 -19.49 -13.87 -18.85 -13.48 -18.21 -13.09 -17.57 -12.7 -16.93 -12.31 -16.29 -11.92 -15.65 -11.52 -15.01 -11.13 -14.38 -10.74 -13.74 -10.35 -13.1 -9.96 -12.46 -9.57 -11.82 -9.18 -11.18 -8.79 -10.54 -8.4 -9.9 -8.01 -9.26 -7.63 -8.63 -7.24 -7.99 -6.85 -7.35 -6.45 -6.71 -6.04 -6.07 -5.62 -5.43 -5.2 -4.79 -4.77 -4.15 -4.34 -3.51 -3.91 -2.88 -3.48 -2.24 -3.05 -1.6 -2.62 -0.96 -2.19 -0.32 -1.77 0.32 -1.34 0.96 -0.92 1.6 -0.5 2.24 -0.08 2.88 0.34 3.51 0.76 4.15 1.18 4.79 1.6 5.43 2.01 6.07 2.42 6.71 2.84 7.35 3.25 7.99 3.66 8.63 -4.95 9.26 -4.53 9.9 -4.12 10.54 -3.74 11.18 -3.35 11.82 -2.96 12.46 -2.58 13.1 -2.17 13.74 -1.76 14.38 -1.35 15.01 -0.94 15.65 -0.53 16.29 -0.12 16.93 0.29 17.57 0.69 18.21 1.1 18.85 1.51 19.49 1.92 20.13 2.33 20.76 2.75 21.4 3.18 22.04 3.61 22.68 4.03 23.32 4.46 23.96 4.89 24.6 5.32 25.24 5.75 25.88 6.18 26.51 6.61 27.15 7.04 27.79 7.47 28.43 7.9 29.07 8.33 29.71 8.76 30.35 9.19 30.99 9.62 31.63 10.05 32.26 10.49 32.9 10.93 33.54 11.37 34.18 11.82 34.82 12.27 35.46 12.73 36.1 13.18 36.74 13.64 37.38 14.09 38.02 14.55 38.65 15 39.29 15.46 39.93 15.91 40.57 16.37 41.21 16.82 41.85 17.28 42.49 17.73 43.13 18.19 43.77 18.64 44.4 19.1 45.04 19.55 45.68 20.01 46.32 20.46 46.96 20.91 47.6 21.37 48.24 21.82 48.88 22.28 49.52 22.73 50.15 23.19 50.79 23.64 51.43 24.1 52.07 24.57 52.71 25.04 53.35 25.5 53.99 25.97 54.63 26.44 55.27 26.91 55.9 27.37 56.54 27.84 57.18 28.31 57.82 28.77 58.46 29.24 59.1 29.71 59.74 30.17 60.38 30.64 61.02 31.11 61.65 31.58 62.29 32.04 62.93 32.51 63.57 32.98 64.21 33.44 64.85 33.91 65.49 34.38 66.13 34.84 66.77 35.31 67.4 35.78 68.04 36.24 68.68 36.71 69.32 37.18 69.96 37.64 70.6 38.11 71.24 38.58 71.88 39.04 72.52 39.51 73.16 39.98 73.79 40.44 74.43 40.91 75.07 41.38 75.71 41.84 76.35 42.31 76.99 42.78 77.63 43.24 78.27 43.71 78.91 44.18 79.54 44.64" class="primitive"/>
            </g>
          </g>
        </g>
      </g>
    </g>
  </g>
  <g class="guide ylabels" font-size="2.82" font-family="'PT Sans Caption','Helvetica Neue','Helvetica',sans-serif" fill="#6C606B" id="img-cffa67c9-48">
    <g transform="translate(16.4,80.32)" id="img-cffa67c9-49">
      <g class="primitive">
        <text text-anchor="end" dy="0.35em">-2</text>
      </g>
    </g>
    <g transform="translate(16.4,61.04)" id="img-cffa67c9-50">
      <g class="primitive">
        <text text-anchor="end" dy="0.35em">0</text>
      </g>
    </g>
    <g transform="translate(16.4,41.77)" id="img-cffa67c9-51">
      <g class="primitive">
        <text text-anchor="end" dy="0.35em">2</text>
      </g>
    </g>
    <g transform="translate(16.4,22.5)" id="img-cffa67c9-52">
      <g class="primitive">
        <text text-anchor="end" dy="0.35em">4</text>
      </g>
    </g>
  </g>
  <g font-size="3.88" font-family="'PT Sans','Helvetica Neue','Helvetica',sans-serif" fill="#564A55" stroke="#000000" stroke-opacity="0.000" id="img-cffa67c9-53">
    <g transform="translate(8.81,44.46)" id="img-cffa67c9-54">
      <g class="primitive">
        <text text-anchor="middle" dy="0.35em" transform="rotate(-90,0, 2)">log₁₀([μ/ρ]) (g/cm²)</text>
      </g>
    </g>
  </g>
  <g font-size="3.88" font-family="'PT Sans','Helvetica Neue','Helvetica',sans-serif" fill="#564A55" stroke="#000000" stroke-opacity="0.000" id="img-cffa67c9-55">
    <g transform="translate(98.94,5)" id="img-cffa67c9-56">
      <g class="primitive">
        <text text-anchor="middle" dy="0.6em">Z = 26</text>
      </g>
    </g>
  </g>
</g>
<defs>
  <clipPath id="img-cffa67c9-21">
    <path d="M17.4,10.61 L 180.49 10.61 180.49 82.32 17.4 82.32" />
  </clipPath>
</defs>
</svg>
