<?xml version="1.0" encoding="UTF-8"?>
<svg xmlns="http://www.w3.org/2000/svg"
     xmlns:xlink="http://www.w3.org/1999/xlink"
     xmlns:gadfly="http://www.gadflyjl.org/ns"
     version="1.2"
     width="203.2mm" height="101.6mm" viewBox="0 0 203.2 101.6"
     stroke="none"
     fill="#000000"
     stroke-width="0.3"
     font-size="3.88"
>
<defs>
  <marker id="arrow" markerWidth="15" markerHeight="7" refX="5" refY="3.5" orient="auto" markerUnits="strokeWidth">
    <path d="M0,0 L15,3.5 L0,7 z" stroke="context-stroke" fill="context-stroke"/>
  </marker>
</defs>
<g class="plotroot xscalable yscalable" id="img-c56802f7-1">
  <g font-size="3.88" font-family="'PT Sans','Helvetica Neue','Helvetica',sans-serif" fill="#564A55" stroke="#000000" stroke-opacity="0.000" id="img-c56802f7-2">
    <g transform="translate(98.94,89.99)">
      <g class="primitive">
        <text text-anchor="middle" dy="0.6em">log₁₀(E) (eV)</text>
      </g>
    </g>
  </g>
  <g class="guide xlabels" font-size="2.82" font-family="'PT Sans Caption','Helvetica Neue','Helvetica',sans-serif" fill="#6C606B" id="img-c56802f7-3">
    <g transform="translate(31.67,83.32)">
      <g class="primitive">
        <text text-anchor="middle" dy="0.6em">2</text>
      </g>
    </g>
    <g transform="translate(72.43,83.32)">
      <g class="primitive">
        <text text-anchor="middle" dy="0.6em">3</text>
      </g>
    </g>
    <g transform="translate(113.19,83.32)">
      <g class="primitive">
        <text text-anchor="middle" dy="0.6em">4</text>
      </g>
    </g>
    <g transform="translate(153.95,83.32)">
      <g class="primitive">
        <text text-anchor="middle" dy="0.6em">5</text>
      </g>
    </g>
  </g>
  <g class="guide colorkey" id="img-c56802f7-4">
    <g fill="#4C404B" font-size="2.82" font-family="'PT Sans','Helvetica Neue','Helvetica',sans-serif" id="img-c56802f7-5">
      <g transform="translate(185.11,43.58)" id="img-c56802f7-6">
        <g class="primitive">
          <text dy="0.35em">[μ/ρ]ₚₑ</text>
        </g>
      </g>
      <g transform="translate(185.11,47.21)" id="img-c56802f7-7">
        <g class="primitive">
          <text dy="0.35em">[μ/ρ]ci</text>
        </g>
      </g>
      <g transform="translate(185.11,50.83)" id="img-c56802f7-8">
        <g class="primitive">
          <text dy="0.35em">[μ/ρ]ₜₒₜ</text>
        </g>
      </g>
      <g transform="translate(185.11,54.46)" id="img-c56802f7-9">
        <g class="primitive">
          <text dy="0.35em">[μ/ρ]ₖ</text>
        </g>
      </g>
    </g>
    <g stroke-width="0.3" id="img-c56802f7-10">
      <g stroke="#FFFFFF" fill-opacity="1" fill="#FFA500" id="img-c56802f7-11">
        <g transform="translate(182.3,54.46)" id="img-c56802f7-12">
          <circle cx="0" cy="0" r="0.9" class="primitive"/>
        </g>
      </g>
      <g stroke="#FFFFFF" fill-opacity="1" fill="#0000FF" id="img-c56802f7-13">
        <g transform="translate(182.3,50.83)" id="img-c56802f7-14">
          <circle cx="0" cy="0" r="0.9" class="primitive"/>
        </g>
      </g>
      <g stroke="#FFFFFF" fill-opacity="1" fill="#008000" id="img-c56802f7-15">
        <g transform="translate(182.3,47.21)" id="img-c56802f7-16">
          <circle cx="0" cy="0" r="0.9" class="primitive"/>
        </g>
      </g>
      <g stroke="#FFFFFF" fill-opacity="1" fill="#FF0000" id="img-c56802f7-17">
        <g transform="translate(182.3,43.58)" id="img-c56802f7-18">
          <circle cx="0" cy="0" r="0.9" class="primitive"/>
        </g>
      </g>
    </g>
    <g fill="#362A35" font-size="3.88" font-family="'PT Sans','Helvetica Neue','Helvetica',sans-serif" stroke="#000000" stroke-opacity="0.000" id="img-c56802f7-19">
      <g transform="translate(181.49,40.27)" id="img-c56802f7-20">
        <g class="primitive">
          <text dy="-0em">Type</text>
        </g>
      </g>
    </g>
  </g>
  <g clip-path="url(#img-c56802f7-21)">
    <g id="img-c56802f7-22">
      <g pointer-events="visible" stroke-width="0.3" fill="#000000" fill-opacity="0.000" stroke="#000000" stroke-opacity="0.000" class="guide background" id="img-c56802f7-23">
        <g transform="translate(98.94,46.46)" id="img-c56802f7-24">
          <path d="M-81.54,-35.85 L 81.54 -35.85 81.54 35.85 -81.54 35.85 z" class="primitive"/>
        </g>
      </g>
      <g class="guide ygridlines xfixed" stroke-dasharray="0.5,0.5" stroke-width="0.2" stroke="#D0D0E0" id="img-c56802f7-25">
        <g transform="translate(98.94,80.32)" id="img-c56802f7-26">
          <path fill="none" d="M-81.54,0 L 81.54 0" class="primitive"/>
        </g>
        <g transform="translate(98.94,60.84)" id="img-c56802f7-27">
          <path fill="none" d="M-81.54,0 L 81.54 0" class="primitive"/>
        </g>
        <g transform="translate(98.94,41.37)" id="img-c56802f7-28">
          <path fill="none" d="M-81.54,0 L 81.54 0" class="primitive"/>
        </g>
        <g transform="translate(98.94,21.9)" id="img-c56802f7-29">
          <path fill="none" d="M-81.54,0 L 81.54 0" class="primitive"/>
        </g>
      </g>
      <g class="guide xgridlines yfixed" stroke-dasharray="0.5,0.5" stroke-width="0.2" stroke="#D0D0E0" id="img-c56802f7-30">
        <g transform="translate(31.67,46.46)" id="img-c56802f7-31">
          <path fill="none" d="M0,-35.85 L 0 35.85" class="primitive"/>
        </g>
        <g transform="translate(72.43,46.46)" id="img-c56802f7-32">
          <path fill="none" d="M0,-35.85 L 0 35.85" class="primitive"/>
        </g>
        <g transform="translate(113.19,46.46)" id="img-c56802f7-33">
          <path fill="none" d="M0,-35.85 L 0 35.85" class="primitive"/>
        </g>
        <g transform="translate(153.95,46.46)" id="img-c56802f7-34">
          <path fill="none" d="M0,-35.85 L 0 35.85" class="primitive"/>
        </g>
      </g>
      <g class="plotpanel" id="img-c56802f7-35">
        <metadata>
          <boundingbox value="17.39833333333334mm 10.611666666666665mm 163.08833333333334mm 71.70333333333333mm"/>
          <unitbox value="1.6499017929189828 5.159894489677121 4.001226409826016 -7.365333574073193"/>
        </metadata>
        <g stroke-width="0.3" fill="#000000" fill-opacity="0.000" class="geometry" id="img-c56802f7-36">
          <g class="color_RGB{N0f8}(1.0,0.647,0.0)" stroke-dasharray="none" stroke="#FFA500" id="img-c56802f7-37">
            <g transform="translate(166.35,62.15)" id="img-c56802f7-38">
              <path fill="none" d="M-12.14,-7.46 L -11.5 -7.08 -10.86 -6.7 -10.22 -6.32 -9.58 -5.93 -8.94 -5.54 -8.31 -5.15 -7.67 -4.76 -7.03 -4.37 -6.39 -3.98 -5.75 -3.58 -5.11 -3.19 -4.47 -2.79 -3.83 -2.39 -3.19 -2 -2.56 -1.6 -1.92 -1.2 -1.28 -0.8 -0.64 -0.41 0 -0.01 0.64 0.39 1.28 0.79 1.92 1.18 2.56 1.58 3.19 1.98 3.83 2.37 4.47 2.77 5.11 3.17 5.75 3.56 6.39 3.96 7.03 4.36 7.67 4.75 8.31 5.15 8.94 5.55 9.58 5.94 10.22 6.34 10.86 6.74 11.5 7.14 12.14 7.53" class="primitive"/>
            </g>
          </g>
        </g>
        <g stroke-width="0.3" fill="#000000" fill-opacity="0.000" class="geometry" id="img-c56802f7-39">
          <g class="color_RGB{N0f8}(0.0,0.0,1.0)" stroke-dasharray="none" stroke="#0000FF" id="img-c56802f7-40">
            <g transform="translate(98.94,36.89)" id="img-c56802f7-41">
              <path fill="none" d="M-79.54,-18.62 L -78.91 -20.08 -78.27 -21.38 -77.63 -22.43 -76.99 -23.23 -76.35 -23.81 -75.71 -24.11 -75.07 -24.28 -74.43 -24.17 -73.79 -24.01 -73.16 -23.59 -72.52 -23.14 -71.88 -22.53 -71.24 -21.87 -70.6 -21.12 -69.96 -20.33 -69.32 -19.5 -68.68 -18.64 -68.04 -17.77 -67.4 -16.88 -66.77 -16 -66.13 -15.14 -65.49 -14.28 -64.85 -13.46 -64.21 -13.05 -63.57 -13.4 -62.93 -12.74 -62.29 -12.11 -61.65 -11.52 -61.02 -10.96 -60.38 -10.44 -59.74 -11.43 -59.1 -10.95 -58.46 -10.47 -57.82 -10.04 -57.18 -9.62 -56.54 -9.24 -55.9 -8.87 -55.27 -8.54 -54.63 -8.53 -53.99 -8.26 -53.35 -8.47 -52.71 -8.77 -52.07 -9.15 -51.43 -9.61 -50.79 -10.26 -50.15 -10.95 -49.52 -11.68 -48.88 -12.4 -48.24 -13.06 -47.6 -13.68 -46.96 -14.22 -46.32 -14.69 -45.68 -15.09 -45.04 -15.41 -44.4 -15.69 -43.77 -15.88 -43.13 -16.04 -42.49 -16.12 -41.85 -16.19 -41.21 -16.18 -40.57 -16.16 -39.93 -16.09 -39.29 -16 -38.65 -15.88 -38.02 -15.74 -37.38 -15.85 -36.74 -15.68 -36.1 -15.67 -35.46 -15.49 -34.82 -15.31 -34.18 -15.11 -33.54 -14.9 -32.9 -14.67 -32.26 -14.44 -31.63 -14.21 -30.99 -14.22 -30.35 -13.98 -29.71 -13.74 -29.07 -13.49 -28.43 -13.24 -27.79 -13.03 -27.15 -12.78 -26.51 -12.51 -25.88 -12.17 -25.24 -11.83 -24.6 -11.58 -23.96 -11.25 -23.32 -10.93 -22.68 -10.6 -22.04 -10.28 -21.4 -9.96 -20.76 -9.64 -20.13 -9.33 -19.49 -9.02 -18.85 -8.7 -18.21 -8.39 -17.57 -8.09 -16.93 -7.78 -16.29 -7.48 -15.65 -7.18 -15.01 -6.88 -14.38 -6.58 -13.74 -6.29 -13.1 -6 -12.46 -5.69 -11.82 -5.38 -11.18 -5.06 -10.54 -4.74 -9.9 -4.43 -9.26 -4.11 -8.63 -3.8 -7.99 -3.49 -7.35 -7.36 -6.71 -8.44 -6.07 -8.01 -5.43 -7.6 -4.79 -7.19 -4.15 -7.06 -3.51 -7.09 -2.88 -6.69 -2.24 -6.3 -1.6 -5.91 -0.96 -5.81 -0.32 -5.42 0.32 -5.22 0.96 -4.85 1.6 -4.48 2.24 -4.11 2.88 -3.74 3.51 -3.38 4.15 -3.01 4.79 -2.64 5.43 -2.26 6.07 -1.88 6.71 -1.5 7.35 -1.12 7.99 -0.75 8.63 -0.37 9.26 0 9.9 0.38 10.54 0.75 11.18 1.11 11.82 1.49 12.46 1.86 13.1 2.26 13.74 2.66 14.38 3.06 15.01 3.45 15.65 3.84 16.29 4.23 16.93 4.62 17.57 5.01 18.21 5.39 18.85 5.78 19.49 6.17 20.13 6.55 20.76 6.94 21.4 3.56 22.04 3.95 22.68 4.36 23.32 4.77 23.96 5.18 24.6 4.17 25.24 3.95 25.88 4.33 26.51 4.72 27.15 5.11 27.79 5.49 28.43 5.88 29.07 6.27 29.71 6.65 30.35 7.04 30.99 7.43 31.63 7.82 32.26 8.21 32.9 8.61 33.54 9.01 34.18 9.42 34.82 9.82 35.46 10.22 36.1 10.62 36.74 11.02 37.38 11.42 38.02 11.83 38.65 12.23 39.29 12.64 39.93 13.04 40.57 13.44 41.21 13.84 41.85 14.23 42.49 14.63 43.13 15.02 43.77 15.42 44.4 15.81 45.04 16.19 45.68 16.58 46.32 16.97 46.96 17.35 47.6 17.74 48.24 18.12 48.88 18.5 49.52 18.89 50.15 19.26 50.79 19.65 51.43 20.04 52.07 20.43 52.71 20.82 53.35 21.21 53.99 21.6 54.63 21.99 55.27 16.56 55.9 16.94 56.54 17.32 57.18 17.7 57.82 18.08 58.46 18.47 59.1 18.85 59.74 19.23 60.38 19.61 61.02 19.99 61.65 20.37 62.29 20.75 62.93 21.13 63.57 21.5 64.21 21.88 64.85 22.25 65.49 22.62 66.13 22.99 66.77 23.36 67.4 23.72 68.04 24.09 68.68 24.45 69.32 24.8 69.96 25.16 70.6 25.51 71.24 25.85 71.88 26.2 72.52 26.54 73.16 26.87 73.79 27.21 74.43 27.53 75.07 27.86 75.71 28.18 76.35 28.49 76.99 28.8 77.63 29.11 78.27 29.41 78.91 29.71 79.54 30" class="primitive"/>
            </g>
          </g>
        </g>
        <g stroke-width="0.3" fill="#000000" fill-opacity="0.000" class="geometry" id="img-c56802f7-42">
          <g class="color_RGB{N0f8}(0.0,0.502,0.0)" stroke-dasharray="none" stroke="#008000" id="img-c56802f7-43">
            <g transform="translate(98.94,58.77)" id="img-c56802f7-44">
              <path fill="none" d="M-79.54,13.69 L -78.91 13.23 -78.27 12.76 -77.63 12.31 -76.99 11.86 -76.35 11.41 -75.71 10.97 -75.07 10.54 -74.43 10.11 -73.79 9.69 -73.16 9.27 -72.52 8.86 -71.88 8.45 -71.24 8.05 -70.6 7.66 -69.96 7.27 -69.32 6.88 -68.68 6.5 -68.04 6.13 -67.4 5.76 -66.77 5.39 -66.13 5.04 -65.49 4.68 -64.85 4.34 -64.21 3.99 -63.57 3.66 -62.93 3.32 -62.29 3 -61.65 2.68 -61.02 2.36 -60.38 2.05 -59.74 1.74 -59.1 1.44 -58.46 1.14 -57.82 0.85 -57.18 0.56 -56.54 0.28 -55.9 0.01 -55.27 -0.27 -54.63 -0.53 -53.99 -0.79 -53.35 -1.05 -52.71 -1.3 -52.07 -1.55 -51.43 -1.79 -50.79 -2.03 -50.15 -2.26 -49.52 -2.49 -48.88 -2.71 -48.24 -2.93 -47.6 -3.15 -46.96 -3.35 -46.32 -3.56 -45.68 -3.76 -45.04 -3.96 -44.4 -4.15 -43.77 -4.33 -43.13 -4.52 -42.49 -4.69 -41.85 -4.87 -41.21 -5.03 -40.57 -5.2 -39.93 -5.36 -39.29 -5.51 -38.65 -5.66 -38.02 -5.81 -37.38 -5.95 -36.74 -6.09 -36.1 -6.22 -35.46 -6.35 -34.82 -6.47 -34.18 -6.59 -33.54 -6.71 -32.9 -6.82 -32.26 -6.93 -31.63 -7.03 -30.99 -7.13 -30.35 -7.23 -29.71 -7.32 -29.07 -7.41 -28.43 -7.49 -27.79 -7.57 -27.15 -7.64 -26.51 -7.71 -25.88 -7.78 -25.24 -7.84 -24.6 -7.9 -23.96 -7.96 -23.32 -8.01 -22.68 -8.06 -22.04 -8.1 -21.4 -8.14 -20.76 -8.18 -20.13 -8.21 -19.49 -8.24 -18.85 -8.26 -18.21 -8.28 -17.57 -8.3 -16.93 -8.31 -16.29 -8.32 -15.65 -8.33 -15.01 -8.33 -14.38 -8.33 -13.74 -8.32 -13.1 -8.31 -12.46 -8.3 -11.82 -8.29 -11.18 -8.27 -10.54 -8.24 -9.9 -8.22 -9.26 -8.19 -8.63 -8.15 -7.99 -8.12 -7.35 -8.08 -6.71 -8.04 -6.07 -7.99 -5.43 -7.94 -4.79 -7.89 -4.15 -7.83 -3.51 -7.77 -2.88 -7.71 -2.24 -7.64 -1.6 -7.57 -0.96 -7.5 -0.32 -7.42 0.32 -7.34 0.96 -7.26 1.6 -7.18 2.24 -7.09 2.88 -7 3.51 -6.9 4.15 -6.8 4.79 -6.7 5.43 -6.6 6.07 -6.49 6.71 -6.38 7.35 -6.27 7.99 -6.16 8.63 -6.04 9.26 -5.92 9.9 -5.79 10.54 -5.67 11.18 -5.54 11.82 -5.42 12.46 -5.3 13.1 -5.17 13.74 -5.03 14.38 -4.89 15.01 -4.74 15.65 -4.6 16.29 -4.45 16.93 -4.3 17.57 -4.14 18.21 -3.99 18.85 -3.83 19.49 -3.67 20.13 -3.51 20.76 -3.34 21.4 -3.18 22.04 -3.01 22.68 -2.83 23.32 -2.66 23.96 -2.49 24.6 -2.31 25.24 -2.13 25.88 -1.95 26.51 -1.76 27.15 -1.58 27.79 -1.39 28.43 -1.2 29.07 -1.01 29.71 -0.82 30.35 -0.62 30.99 -0.43 31.63 -0.23 32.26 -0.03 32.9 0.17 33.54 0.37 34.18 0.57 34.82 0.77 35.46 0.98 36.1 1.18 36.74 1.39 37.38 1.59 38.02 1.8 38.65 2.01 39.29 2.22 39.93 2.43 40.57 2.64 41.21 2.84 41.85 3.05 42.49 3.26 43.13 3.47 43.77 3.68 44.4 3.89 45.04 4.1 45.68 4.31 46.32 4.52 46.96 4.72 47.6 4.93 48.24 5.13 48.88 5.34 49.52 5.54 50.15 5.74 50.79 5.94 51.43 6.14 52.07 6.33 52.71 6.53 53.35 6.72 53.99 6.91 54.63 7.1 55.27 7.28 55.9 7.47 56.54 7.65 57.18 7.83 57.82 8 58.46 8.17 59.1 8.34 59.74 8.51 60.38 8.67 61.02 8.84 61.65 8.99 62.29 9.15 62.93 9.3 63.57 9.45 64.21 9.6 64.85 9.74 65.49 9.88 66.13 10.02 66.77 10.15 67.4 10.29 68.04 10.42 68.68 10.54 69.32 10.67 69.96 10.79 70.6 10.91 71.24 11.02 71.88 11.14 72.52 11.25 73.16 11.36 73.79 11.47 74.43 11.58 75.07 11.69 75.71 11.79 76.35 11.89 76.99 11.99 77.63 12.09 78.27 12.19 78.91 12.29 79.54 12.39" class="primitive"/>
            </g>
          </g>
        </g>
        <g stroke-width="0.3" fill="#000000" fill-opacity="0.000" class="geometry" id="img-c56802f7-45">
          <g class="color_RGB{N0f8}(1.0,0.0,0.0)" stroke-dasharray="none" stroke="#FF0000" id="img-c56802f7-46">
            <g transform="translate(98.94,37.11)" id="img-c56802f7-47">
              <path fill="none" d="M-79.54,-18.84 L -78.91 -20.29 -78.27 -21.6 -77.63 -22.65 -76.99 -23.45 -76.35 -24.02 -75.71 -24.32 -75.07 -24.49 -74.43 -24.39 -73.79 -24.22 -73.16 -23.81 -72.52 -23.36 -71.88 -22.74 -71.24 -22.09 -70.6 -21.34 -69.96 -20.55 -69.32 -19.72 -68.68 -18.86 -68.04 -17.98 -67.4 -17.1 -66.77 -16.22 -66.13 -15.36 -65.49 -14.5 -64.85 -13.67 -64.21 -13.27 -63.57 -13.61 -62.93 -12.95 -62.29 -12.33 -61.65 -11.73 -61.02 -11.18 -60.38 -10.66 -59.74 -11.65 -59.1 -11.16 -58.46 -10.69 -57.82 -10.26 -57.18 -9.83 -56.54 -9.46 -55.9 -9.09 -55.27 -8.75 -54.63 -8.74 -53.99 -8.47 -53.35 -8.68 -52.71 -8.98 -52.07 -9.37 -51.43 -9.82 -50.79 -10.48 -50.15 -11.16 -49.52 -11.89 -48.88 -12.62 -48.24 -13.28 -47.6 -13.9 -46.96 -14.43 -46.32 -14.91 -45.68 -15.31 -45.04 -15.63 -44.4 -15.9 -43.77 -16.09 -43.13 -16.26 -42.49 -16.34 -41.85 -16.4 -41.21 -16.39 -40.57 -16.37 -39.93 -16.3 -39.29 -16.22 -38.65 -16.1 -38.02 -15.95 -37.38 -16.06 -36.74 -15.89 -36.1 -15.88 -35.46 -15.71 -34.82 -15.52 -34.18 -15.32 -33.54 -15.11 -32.9 -14.89 -32.26 -14.66 -31.63 -14.42 -30.99 -14.43 -30.35 -14.19 -29.71 -13.95 -29.07 -13.7 -28.43 -13.45 -27.79 -13.24 -27.15 -12.99 -26.51 -12.72 -25.88 -12.38 -25.24 -12.04 -24.6 -11.79 -23.96 -11.46 -23.32 -11.13 -22.68 -10.81 -22.04 -10.48 -21.4 -10.16 -20.76 -9.84 -20.13 -9.53 -19.49 -9.21 -18.85 -8.9 -18.21 -8.59 -17.57 -8.28 -16.93 -7.97 -16.29 -7.66 -15.65 -7.36 -15.01 -7.06 -14.38 -6.76 -13.74 -6.47 -13.1 -6.17 -12.46 -5.86 -11.82 -5.55 -11.18 -5.23 -10.54 -4.9 -9.9 -4.58 -9.26 -4.26 -8.63 -3.95 -7.99 -3.63 -7.35 -7.55 -6.71 -8.64 -6.07 -8.2 -5.43 -7.79 -4.79 -7.38 -4.15 -7.24 -3.51 -7.27 -2.88 -6.88 -2.24 -6.48 -1.6 -6.09 -0.96 -5.99 -0.32 -5.59 0.32 -5.4 0.96 -5.02 1.6 -4.65 2.24 -4.28 2.88 -3.91 3.51 -3.54 4.15 -3.16 4.79 -2.79 5.43 -2.41 6.07 -2.02 6.71 -1.64 7.35 -1.26 7.99 -0.88 8.63 -0.49 9.26 -0.11 9.9 0.27 10.54 0.64 11.18 1.02 11.82 1.4 12.46 1.78 13.1 2.19 13.74 2.6 14.38 3 15.01 3.41 15.65 3.81 16.29 4.21 16.93 4.61 17.57 5.01 18.21 5.41 18.85 5.81 19.49 6.21 20.13 6.6 20.76 7 21.4 3.46 22.04 3.86 22.68 4.28 23.32 4.7 23.96 5.11 24.6 4.06 25.24 3.84 25.88 4.23 26.51 4.62 27.15 5.01 27.79 5.4 28.43 5.8 29.07 6.19 29.71 6.58 30.35 6.97 30.99 7.37 31.63 7.76 32.26 8.17 32.9 8.58 33.54 8.99 34.18 9.4 34.82 9.81 35.46 10.22 36.1 10.63 36.74 11.05 37.38 11.46 38.02 11.88 38.65 12.3 39.29 12.71 39.93 13.13 40.57 13.54 41.21 13.96 41.85 14.37 42.49 14.78 43.13 15.19 43.77 15.6 44.4 16.01 45.04 16.42 45.68 16.83 46.32 17.23 46.96 17.64 47.6 18.05 48.24 18.46 48.88 18.87 49.52 19.27 50.15 19.68 50.79 20.1 51.43 20.51 52.07 20.95 52.71 21.38 53.35 21.81 53.99 22.24 54.63 22.67 55.27 16.57 55.9 16.96 56.54 17.35 57.18 17.74 57.82 18.14 58.46 18.53 59.1 18.93 59.74 19.33 60.38 19.72 61.02 20.12 61.65 20.52 62.29 20.92 62.93 21.32 63.57 21.72 64.21 22.13 64.85 22.53 65.49 22.93 66.13 23.33 66.77 23.73 67.4 24.13 68.04 24.53 68.68 24.93 69.32 25.33 69.96 25.73 70.6 26.12 71.24 26.52 71.88 26.92 72.52 27.32 73.16 27.72 73.79 28.12 74.43 28.52 75.07 28.91 75.71 29.31 76.35 29.71 76.99 30.11 77.63 30.51 78.27 30.9 78.91 31.3 79.54 31.7" class="primitive"/>
            </g>
          </g>
        </g>
      </g>
    </g>
  </g>
  <g class="guide ylabels" font-size="2.82" font-family="'PT Sans Caption','Helvetica Neue','Helvetica',sans-serif" fill="#6C606B" id="img-c56802f7-48">
    <g transform="translate(16.4,80.32)" id="img-c56802f7-49">
      <g class="primitive">
        <text text-anchor="end" dy="0.35em">-2</text>
      </g>
    </g>
    <g transform="translate(16.4,60.84)" id="img-c56802f7-50">
      <g class="primitive">
        <text text-anchor="end" dy="0.35em">0</text>
      </g>
    </g>
    <g transform="translate(16.4,41.37)" id="img-c56802f7-51">
      <g class="primitive">
        <text text-anchor="end" dy="0.35em">2</text>
      </g>
    </g>
    <g transform="translate(16.4,21.9)" id="img-c56802f7-52">
      <g class="primitive">
        <text text-anchor="end" dy="0.35em">4</text>
      </g>
    </g>
  </g>
  <g font-size="3.88" font-family="'PT Sans','Helvetica Neue','Helvetica',sans-serif" fill="#564A55" stroke="#000000" stroke-opacity="0.000" id="img-c56802f7-53">
    <g transform="translate(8.81,44.46)" id="img-c56802f7-54">
      <g class="primitive">
        <text text-anchor="middle" dy="0.35em" transform="rotate(-90,0, 2)">log₁₀([μ/ρ]) (g/cm²)</text>
      </g>
    </g>
  </g>
  <g font-size="3.88" font-family="'PT Sans','Helvetica Neue','Helvetica',sans-serif" fill="#564A55" stroke="#000000" stroke-opacity="0.000" id="img-c56802f7-55">
    <g transform="translate(98.94,5)" id="img-c56802f7-56">
      <g class="primitive">
        <text text-anchor="middle" dy="0.6em">Z = 86</text>
      </g>
    </g>
  </g>
</g>
<defs>
  <clipPath id="img-c56802f7-21">
    <path d="M17.4,10.61 L 180.49 10.61 180.49 82.32 17.4 82.32" />
  </clipPath>
</defs>
</svg>
