<?xml version="1.0" encoding="UTF-8"?>
<svg xmlns="http://www.w3.org/2000/svg"
     xmlns:xlink="http://www.w3.org/1999/xlink"
     xmlns:gadfly="http://www.gadflyjl.org/ns"
     version="1.2"
     width="203.2mm" height="101.6mm" viewBox="0 0 203.2 101.6"
     stroke="none"
     fill="#000000"
     stroke-width="0.3"
     font-size="3.88"
>
<defs>
  <marker id="arrow" markerWidth="15" markerHeight="7" refX="5" refY="3.5" orient="auto" markerUnits="strokeWidth">
    <path d="M0,0 L15,3.5 L0,7 z" stroke="context-stroke" fill="context-stroke"/>
  </marker>
</defs>
<g class="plotroot xscalable yscalable" id="img-dd34b685-1">
  <g font-size="3.88" font-family="'PT Sans','Helvetica Neue','Helvetica',sans-serif" fill="#564A55" stroke="#000000" stroke-opacity="0.000" id="img-dd34b685-2">
    <g transform="translate(102.73,89.99)">
      <g class="primitive">
        <text text-anchor="middle" dy="0.6em">log₁₀(E) (eV)</text>
      </g>
    </g>
  </g>
  <g class="guide xlabels" font-size="2.82" font-family="'PT Sans Caption','Helvetica Neue','Helvetica',sans-serif" fill="#6C606B" id="img-dd34b685-3">
    <g transform="translate(32.73,83.32)">
      <g class="primitive">
        <text text-anchor="middle" dy="0.6em">2</text>
      </g>
    </g>
    <g transform="translate(75.14,83.32)">
      <g class="primitive">
        <text text-anchor="middle" dy="0.6em">3</text>
      </g>
    </g>
    <g transform="translate(117.55,83.32)">
      <g class="primitive">
        <text text-anchor="middle" dy="0.6em">4</text>
      </g>
    </g>
    <g transform="translate(159.96,83.32)">
      <g class="primitive">
        <text text-anchor="middle" dy="0.6em">5</text>
      </g>
    </g>
  </g>
  <g class="guide colorkey" id="img-dd34b685-4">
    <g fill="#4C404B" font-size="2.82" font-family="'PT Sans','Helvetica Neue','Helvetica',sans-serif" id="img-dd34b685-5">
      <g transform="translate(192.13,47.21)" id="img-dd34b685-6">
        <g class="primitive">
          <text dy="0.35em">f₁(E)</text>
        </g>
      </g>
      <g transform="translate(192.13,50.83)" id="img-dd34b685-7">
        <g class="primitive">
          <text dy="0.35em">f₂(E)</text>
        </g>
      </g>
    </g>
    <g stroke-width="0.3" id="img-dd34b685-8">
      <g stroke="#FFFFFF" fill-opacity="1" fill="#0000FF" id="img-dd34b685-9">
        <g transform="translate(189.31,50.83)" id="img-dd34b685-10">
          <circle cx="0" cy="0" r="0.9" class="primitive"/>
        </g>
      </g>
      <g stroke="#FFFFFF" fill-opacity="1" fill="#FF0000" id="img-dd34b685-11">
        <g transform="translate(189.31,47.21)" id="img-dd34b685-12">
          <circle cx="0" cy="0" r="0.9" class="primitive"/>
        </g>
      </g>
    </g>
    <g fill="#362A35" font-size="3.88" font-family="'PT Sans','Helvetica Neue','Helvetica',sans-serif" stroke="#000000" stroke-opacity="0.000" id="img-dd34b685-13">
      <g transform="translate(188.5,43.89)" id="img-dd34b685-14">
        <g class="primitive">
          <text dy="-0em">Type</text>
        </g>
      </g>
    </g>
  </g>
  <g clip-path="url(#img-dd34b685-15)">
    <g id="img-dd34b685-16">
      <g pointer-events="visible" stroke-width="0.3" fill="#000000" fill-opacity="0.000" stroke="#000000" stroke-opacity="0.000" class="guide background" id="img-dd34b685-17">
        <g transform="translate(102.73,46.46)" id="img-dd34b685-18">
          <path d="M-84.77,-35.85 L 84.77 -35.85 84.77 35.85 -84.77 35.85 z" class="primitive"/>
        </g>
      </g>
      <g class="guide ygridlines xfixed" stroke-dasharray="0.5,0.5" stroke-width="0.2" stroke="#D0D0E0" id="img-dd34b685-19">
        <g transform="translate(102.73,80.32)" id="img-dd34b685-20">
          <path fill="none" d="M-84.77,0 L 84.77 0" class="primitive"/>
        </g>
        <g transform="translate(102.73,41.13)" id="img-dd34b685-21">
          <path fill="none" d="M-84.77,0 L 84.77 0" class="primitive"/>
        </g>
      </g>
      <g class="guide xgridlines yfixed" stroke-dasharray="0.5,0.5" stroke-width="0.2" stroke="#D0D0E0" id="img-dd34b685-22">
        <g transform="translate(32.73,46.46)" id="img-dd34b685-23">
          <path fill="none" d="M0,-35.85 L 0 35.85" class="primitive"/>
        </g>
        <g transform="translate(75.14,46.46)" id="img-dd34b685-24">
          <path fill="none" d="M0,-35.85 L 0 35.85" class="primitive"/>
        </g>
        <g transform="translate(117.55,46.46)" id="img-dd34b685-25">
          <path fill="none" d="M0,-35.85 L 0 35.85" class="primitive"/>
        </g>
        <g transform="translate(159.96,46.46)" id="img-dd34b685-26">
          <path fill="none" d="M0,-35.85 L 0 35.85" class="primitive"/>
        </g>
      </g>
      <g class="plotpanel" id="img-dd34b685-27">
        <metadata>
          <boundingbox value="17.958333333333343mm 10.611666666666665mm 169.54166666666666mm 71.70333333333333mm"/>
          <unitbox value="1.6518146256862294 88.94391004180255 3.9974007442915225 -91.4959805322182"/>
        </metadata>
        <g stroke-width="0.3" fill="#000000" fill-opacity="0.000" class="geometry" id="img-dd34b685-28">
          <g class="color_RGB{N0f8}(0.0,0.0,1.0)" stroke-dasharray="none" stroke="#0000FF" id="img-dd34b685-29">
            <g transform="translate(102.73,70.88)" id="img-dd34b685-30">
              <path fill="none" d="M-82.77,4.55 L -82.11 2.29 -81.44 -0.65 -80.78 -3.96 -80.11 -7.35 -79.45 -10.52 -78.78 -12.77 -78.12 -14.53 -77.45 -14.79 -76.79 -14.73 -76.12 -13.27 -75.46 -11.73 -74.79 -9.53 -74.13 -7.41 -73.46 -5.19 -72.8 -3.15 -72.13 -1.28 -71.47 0.37 -70.8 1.8 -70.14 3 -69.47 4.02 -68.81 4.86 -68.14 5.56 -67.48 6.13 -66.82 6.32 -66.15 5.94 -65.49 6.33 -64.82 6.66 -64.16 6.93 -63.49 7.16 -62.83 7.35 -62.16 6.7 -61.5 6.91 -60.83 7.09 -60.17 7.24 -59.5 7.38 -58.84 7.49 -58.17 7.58 -57.51 7.66 -56.84 7.6 -56.18 7.65 -55.51 7.49 -54.85 7.27 -54.18 6.98 -53.52 6.6 -52.85 6 -52.19 5.25 -51.52 4.28 -50.86 3.09 -50.19 1.75 -49.53 0.21 -48.86 -1.42 -48.2 -3.16 -47.54 -4.91 -46.87 -6.62 -46.21 -8.33 -45.54 -9.83 -44.88 -11.33 -44.21 -12.5 -43.55 -13.66 -42.88 -14.47 -42.22 -15.22 -41.55 -15.7 -40.89 -16.09 -40.22 -16.3 -39.56 -16.33 -38.89 -17.98 -38.23 -17.9 -37.56 -18.83 -36.9 -18.67 -36.23 -18.44 -35.57 -18.13 -34.9 -17.75 -34.24 -17.31 -33.57 -16.82 -32.91 -16.3 -32.24 -17.35 -31.58 -16.79 -30.91 -16.22 -30.25 -15.65 -29.58 -15.08 -28.92 -14.77 -28.26 -14.18 -27.59 -13.55 -26.93 -12.54 -26.26 -11.59 -25.6 -11.12 -24.93 -10.27 -24.27 -9.47 -23.6 -8.72 -22.94 -8.01 -22.27 -7.32 -21.61 -6.67 -20.94 -6.06 -20.28 -5.47 -19.61 -4.92 -18.95 -4.39 -18.28 -3.89 -17.62 -3.41 -16.95 -2.95 -16.29 -2.52 -15.62 -2.11 -14.96 -1.72 -14.29 -1.35 -13.63 -0.99 -12.96 -0.62 -12.3 -0.24 -11.63 0.15 -10.97 0.51 -10.3 0.86 -9.64 1.19 -8.98 1.5 -8.31 1.8 -7.65 -10.54 -6.98 -17.35 -6.32 -15.63 -5.65 -14.11 -4.99 -12.74 -4.32 -12.82 -3.66 -13.81 -2.99 -12.51 -2.33 -11.3 -1.66 -10.15 -1 -10.39 -0.33 -9.27 0.33 -9.08 1 -8.14 1.66 -7.24 2.33 -6.4 2.99 -5.61 3.66 -4.86 4.32 -4.13 4.99 -3.43 5.65 -2.75 6.32 -2.1 6.98 -1.48 7.65 -0.91 8.31 -0.37 8.98 0.15 9.64 0.64 10.3 1.1 10.97 1.52 11.63 1.93 12.3 2.32 12.96 2.7 13.63 3.09 14.29 3.47 14.96 3.81 15.62 4.14 16.29 4.44 16.95 4.73 17.62 5 18.28 5.25 18.95 5.48 19.61 5.71 20.28 5.92 20.94 6.12 21.61 6.3 22.27 1.93 22.94 2.37 23.6 2.79 24.27 3.19 24.93 3.57 25.6 1.64 26.26 0.91 26.93 1.38 27.59 1.82 28.26 2.24 28.92 2.64 29.58 3.01 30.25 3.37 30.91 3.7 31.58 4.02 32.24 4.32 32.91 4.61 33.57 4.89 34.24 5.15 34.9 5.41 35.57 5.65 36.23 5.87 36.9 6.08 37.56 6.28 38.23 6.47 38.89 6.65 39.56 6.82 40.22 6.97 40.89 7.12 41.55 7.26 42.22 7.39 42.88 7.52 43.55 7.63 44.21 7.74 44.88 7.84 45.54 7.93 46.21 8.02 46.87 8.1 47.54 8.18 48.2 8.25 48.86 8.32 49.53 8.39 50.19 8.45 50.86 8.51 51.52 8.56 52.19 8.61 52.85 8.66 53.52 8.71 54.18 8.76 54.85 8.8 55.51 8.84 56.18 8.88 56.84 8.91 57.51 7.15 58.17 7.27 58.84 7.39 59.5 7.5 60.17 7.61 60.83 7.71 61.5 7.81 62.16 7.9 62.83 7.99 63.49 8.07 64.16 8.15 64.82 8.22 65.49 8.29 66.15 8.35 66.82 8.41 67.48 8.47 68.14 8.53 68.81 8.58 69.47 8.63 70.14 8.67 70.8 8.72 71.47 8.76 72.13 8.8 72.8 8.83 73.46 8.87 74.13 8.9 74.79 8.93 75.46 8.96 76.12 8.98 76.79 9.01 77.45 9.03 78.12 9.06 78.78 9.08 79.45 9.1 80.11 9.12 80.78 9.13 81.44 9.15 82.11 9.17 82.77 9.18" class="primitive"/>
            </g>
          </g>
        </g>
        <g stroke-width="0.3" fill="#000000" fill-opacity="0.000" class="geometry" id="img-dd34b685-31">
          <g class="color_RGB{N0f8}(1.0,0.0,0.0)" stroke-dasharray="none" stroke="#FF0000" id="img-dd34b685-32">
            <g transform="translate(102.73,32.31)" id="img-dd34b685-33">
              <path fill="none" d="M-82.77,47.57 L -82.11 47.06 -81.44 46.62 -80.78 46.93 -80.11 46.67 -79.45 45.52 -78.78 43.39 -78.12 39.47 -77.45 35.92 -76.79 31.8 -76.12 29 -75.46 26 -74.79 24.2 -74.13 22.59 -73.46 21.78 -72.8 21.27 -72.13 21.19 -71.47 21.37 -70.8 21.72 -70.14 22.24 -69.47 22.81 -68.81 23.47 -68.14 24.14 -67.48 24.99 -66.82 26.53 -66.15 25.92 -65.49 26.14 -64.82 26.52 -64.16 26.93 -63.49 27.39 -62.83 27.94 -62.16 28.56 -61.5 28.49 -60.83 28.63 -60.17 28.94 -59.5 29.27 -58.84 29.67 -58.17 30.1 -57.51 30.59 -56.84 31.13 -56.18 31.78 -55.51 32.45 -54.85 33.1 -54.18 33.93 -53.52 34.76 -52.85 35.67 -52.19 36.54 -51.52 37.38 -50.86 38.13 -50.19 38.71 -49.53 39.15 -48.86 39.34 -48.2 39.32 -47.54 39.06 -46.87 38.55 -46.21 37.84 -45.54 36.89 -44.88 35.79 -44.21 34.53 -43.55 33.16 -42.88 31.76 -42.22 30.29 -41.55 28.89 -40.89 27.02 -40.22 24.63 -39.56 23.71 -38.89 23.22 -38.23 21.51 -37.56 19.58 -36.9 17.85 -36.23 16.34 -35.57 15 -34.9 13.76 -34.24 12.62 -33.57 11.65 -32.91 10.97 -32.24 10.33 -31.58 8.6 -30.91 7.39 -30.25 6.33 -29.58 5.37 -28.92 4.69 -28.26 3.36 -27.59 2.08 -26.93 1.36 -26.26 0.89 -25.6 0.41 -24.93 -0.18 -24.27 -0.61 -23.6 -0.95 -22.94 -1.24 -22.27 -1.48 -21.61 -1.68 -20.94 -1.83 -20.28 -1.95 -19.61 -2.04 -18.95 -2.1 -18.28 -2.15 -17.62 -2.16 -16.95 -2.12 -16.29 -2.06 -15.62 -1.96 -14.96 -1.82 -14.29 -1.64 -13.63 -1.41 -12.96 -1.11 -12.3 -0.72 -11.63 -0.2 -10.97 0.51 -10.3 1.49 -9.64 2.91 -8.98 5.21 -8.31 10.57 -7.65 10.41 -6.98 6.71 -6.32 0.68 -5.65 -2.1 -4.99 -3.52 -4.32 -1.17 -3.66 -6.6 -2.99 -8.37 -2.33 -9.51 -1.66 -10.07 -1 -10.91 -0.33 -11.85 0.33 -12.58 1 -13.54 1.66 -14.2 2.33 -14.73 2.99 -15.16 3.66 -15.54 4.32 -15.85 4.99 -16.24 5.65 -16.54 6.32 -16.7 6.98 -16.82 7.65 -16.91 8.31 -16.97 8.98 -17.08 9.64 -17.1 10.3 -17.11 10.97 -17.09 11.63 -17.1 12.3 -17.18 12.96 -17.32 13.63 -17.23 14.29 -17.13 14.96 -16.99 15.62 -16.84 16.29 -16.67 16.95 -16.47 17.62 -16.24 18.28 -15.97 18.95 -15.67 19.61 -15.23 20.28 -14.75 20.94 -13.6 21.61 -11.7 22.27 -12.97 22.94 -14.28 23.6 -14.66 24.27 -14.72 24.93 -12.48 25.6 -14.66 26.26 -16.15 26.93 -16.95 27.59 -17.6 28.26 -18.02 28.92 -18.39 29.58 -18.63 30.25 -18.86 30.91 -19.02 31.58 -19.17 32.24 -19.29 32.91 -19.39 33.57 -19.47 34.24 -19.55 34.9 -19.62 35.57 -19.65 36.23 -19.66 36.9 -19.67 37.56 -19.67 38.23 -19.69 38.89 -19.7 39.56 -19.68 40.22 -19.65 40.89 -19.62 41.55 -19.59 42.22 -19.56 42.88 -19.52 43.55 -19.48 44.21 -19.44 44.88 -19.4 45.54 -19.36 46.21 -19.32 46.87 -19.28 47.54 -19.23 48.2 -19.19 48.86 -19.14 49.53 -19.09 50.19 -19.04 50.86 -18.98 51.52 -18.92 52.19 -18.86 52.85 -18.78 53.52 -18.7 54.18 -18.58 54.85 -18.45 55.51 -18.23 56.18 -17.89 56.84 -16.78 57.51 -17.84 58.17 -18.38 58.84 -18.72 59.5 -18.93 60.17 -19.08 60.83 -19.2 61.5 -19.28 62.16 -19.35 62.83 -19.4 63.49 -19.45 64.16 -19.49 64.82 -19.52 65.49 -19.54 66.15 -19.56 66.82 -19.57 67.48 -19.59 68.14 -19.59 68.81 -19.6 69.47 -19.6 70.14 -19.61 70.8 -19.61 71.47 -19.61 72.13 -19.6 72.8 -19.6 73.46 -19.6 74.13 -19.59 74.79 -19.59 75.46 -19.59 76.12 -19.58 76.79 -19.58 77.45 -19.57 78.12 -19.56 78.78 -19.56 79.45 -19.55 80.11 -19.55 80.78 -19.54 81.44 -19.54 82.11 -19.53 82.77 -19.53" class="primitive"/>
            </g>
          </g>
        </g>
      </g>
    </g>
  </g>
  <g class="guide ylabels" font-size="2.82" font-family="'PT Sans Caption','Helvetica Neue','Helvetica',sans-serif" fill="#6C606B" id="img-dd34b685-34">
    <g transform="translate(16.96,80.32)" id="img-dd34b685-35">
      <g class="primitive">
        <text text-anchor="end" dy="0.35em">0</text>
      </g>
    </g>
    <g transform="translate(16.96,41.13)" id="img-dd34b685-36">
      <g class="primitive">
        <text text-anchor="end" dy="0.35em">50</text>
      </g>
    </g>
  </g>
  <g font-size="3.88" font-family="'PT Sans','Helvetica Neue','Helvetica',sans-serif" fill="#564A55" stroke="#000000" stroke-opacity="0.000" id="img-dd34b685-37">
    <g transform="translate(8.81,44.46)" id="img-dd34b685-38">
      <g class="primitive">
        <text text-anchor="middle" dy="0.35em" transform="rotate(-90,0, 2)">log₁₀(f(E)) (e/atom)</text>
      </g>
    </g>
  </g>
  <g font-size="3.88" font-family="'PT Sans','Helvetica Neue','Helvetica',sans-serif" fill="#564A55" stroke="#000000" stroke-opacity="0.000" id="img-dd34b685-39">
    <g transform="translate(102.73,5)" id="img-dd34b685-40">
      <g class="primitive">
        <text text-anchor="middle" dy="0.6em">Z = 86</text>
      </g>
    </g>
  </g>
</g>
<defs>
  <clipPath id="img-dd34b685-15">
    <path d="M17.96,10.61 L 187.5 10.61 187.5 82.32 17.96 82.32" />
  </clipPath>
</defs>
</svg>
