<?xml version="1.0" encoding="UTF-8"?>
<svg xmlns="http://www.w3.org/2000/svg"
     xmlns:xlink="http://www.w3.org/1999/xlink"
     xmlns:gadfly="http://www.gadflyjl.org/ns"
     version="1.2"
     width="203.2mm" height="101.6mm" viewBox="0 0 203.2 101.6"
     stroke="none"
     fill="#000000"
     stroke-width="0.3"
     font-size="3.88"
>
<defs>
  <marker id="arrow" markerWidth="15" markerHeight="7" refX="5" refY="3.5" orient="auto" markerUnits="strokeWidth">
    <path d="M0,0 L15,3.5 L0,7 z" stroke="context-stroke" fill="context-stroke"/>
  </marker>
</defs>
<g class="plotroot xscalable yscalable" id="img-880c0d7b-1">
  <g font-size="3.88" font-family="'PT Sans','Helvetica Neue','Helvetica',sans-serif" fill="#564A55" stroke="#000000" stroke-opacity="0.000" id="img-880c0d7b-2">
    <g transform="translate(102.73,89.99)">
      <g class="primitive">
        <text text-anchor="middle" dy="0.6em">log₁₀(E) (eV)</text>
      </g>
    </g>
  </g>
  <g class="guide xlabels" font-size="2.82" font-family="'PT Sans Caption','Helvetica Neue','Helvetica',sans-serif" fill="#6C606B" id="img-880c0d7b-3">
    <g transform="translate(32.73,83.32)">
      <g class="primitive">
        <text text-anchor="middle" dy="0.6em">2</text>
      </g>
    </g>
    <g transform="translate(75.14,83.32)">
      <g class="primitive">
        <text text-anchor="middle" dy="0.6em">3</text>
      </g>
    </g>
    <g transform="translate(117.55,83.32)">
      <g class="primitive">
        <text text-anchor="middle" dy="0.6em">4</text>
      </g>
    </g>
    <g transform="translate(159.96,83.32)">
      <g class="primitive">
        <text text-anchor="middle" dy="0.6em">5</text>
      </g>
    </g>
  </g>
  <g class="guide colorkey" id="img-880c0d7b-4">
    <g fill="#4C404B" font-size="2.82" font-family="'PT Sans','Helvetica Neue','Helvetica',sans-serif" id="img-880c0d7b-5">
      <g transform="translate(192.13,47.21)" id="img-880c0d7b-6">
        <g class="primitive">
          <text dy="0.35em">f₁(E)</text>
        </g>
      </g>
      <g transform="translate(192.13,50.83)" id="img-880c0d7b-7">
        <g class="primitive">
          <text dy="0.35em">f₂(E)</text>
        </g>
      </g>
    </g>
    <g stroke-width="0.3" id="img-880c0d7b-8">
      <g stroke="#FFFFFF" fill-opacity="1" fill="#0000FF" id="img-880c0d7b-9">
        <g transform="translate(189.31,50.83)" id="img-880c0d7b-10">
          <circle cx="0" cy="0" r="0.9" class="primitive"/>
        </g>
      </g>
      <g stroke="#FFFFFF" fill-opacity="1" fill="#FF0000" id="img-880c0d7b-11">
        <g transform="translate(189.31,47.21)" id="img-880c0d7b-12">
          <circle cx="0" cy="0" r="0.9" class="primitive"/>
        </g>
      </g>
    </g>
    <g fill="#362A35" font-size="3.88" font-family="'PT Sans','Helvetica Neue','Helvetica',sans-serif" stroke="#000000" stroke-opacity="0.000" id="img-880c0d7b-13">
      <g transform="translate(188.5,43.89)" id="img-880c0d7b-14">
        <g class="primitive">
          <text dy="-0em">Type</text>
        </g>
      </g>
    </g>
  </g>
  <g clip-path="url(#img-880c0d7b-15)">
    <g id="img-880c0d7b-16">
      <g pointer-events="visible" stroke-width="0.3" fill="#000000" fill-opacity="0.000" stroke="#000000" stroke-opacity="0.000" class="guide background" id="img-880c0d7b-17">
        <g transform="translate(102.73,46.46)" id="img-880c0d7b-18">
          <path d="M-84.77,-35.85 L 84.77 -35.85 84.77 35.85 -84.77 35.85 z" class="primitive"/>
        </g>
      </g>
      <g class="guide ygridlines xfixed" stroke-dasharray="0.5,0.5" stroke-width="0.2" stroke="#D0D0E0" id="img-880c0d7b-19">
        <g transform="translate(102.73,80.32)" id="img-880c0d7b-20">
          <path fill="none" d="M-84.77,0 L 84.77 0" class="primitive"/>
        </g>
        <g transform="translate(102.73,54.69)" id="img-880c0d7b-21">
          <path fill="none" d="M-84.77,0 L 84.77 0" class="primitive"/>
        </g>
        <g transform="translate(102.73,29.06)" id="img-880c0d7b-22">
          <path fill="none" d="M-84.77,0 L 84.77 0" class="primitive"/>
        </g>
      </g>
      <g class="guide xgridlines yfixed" stroke-dasharray="0.5,0.5" stroke-width="0.2" stroke="#D0D0E0" id="img-880c0d7b-23">
        <g transform="translate(32.73,46.46)" id="img-880c0d7b-24">
          <path fill="none" d="M0,-35.85 L 0 35.85" class="primitive"/>
        </g>
        <g transform="translate(75.14,46.46)" id="img-880c0d7b-25">
          <path fill="none" d="M0,-35.85 L 0 35.85" class="primitive"/>
        </g>
        <g transform="translate(117.55,46.46)" id="img-880c0d7b-26">
          <path fill="none" d="M0,-35.85 L 0 35.85" class="primitive"/>
        </g>
        <g transform="translate(159.96,46.46)" id="img-880c0d7b-27">
          <path fill="none" d="M0,-35.85 L 0 35.85" class="primitive"/>
        </g>
      </g>
      <g class="plotpanel" id="img-880c0d7b-28">
        <metadata>
          <boundingbox value="17.958333333333343mm 10.611666666666665mm 169.54166666666666mm 71.70333333333333mm"/>
          <unitbox value="1.6518146256862294 27.20128926004794 3.9974007442915225 -27.981776733436526"/>
        </metadata>
        <g stroke-width="0.3" fill="#000000" fill-opacity="0.000" class="geometry" id="img-880c0d7b-29">
          <g class="color_RGB{N0f8}(0.0,0.0,1.0)" stroke-dasharray="none" stroke="#0000FF" id="img-880c0d7b-30">
            <g transform="translate(102.73,72.54)" id="img-880c0d7b-31">
              <path fill="none" d="M-82.77,-7.03 L -82.11 -7.24 -81.44 -7.44 -80.78 -12.33 -80.11 -11.85 -79.45 -11.43 -78.78 -11.16 -78.12 -10.97 -77.45 -10.77 -76.79 -10.57 -76.12 -10.19 -75.46 -9.82 -74.79 -9.47 -74.13 -9.13 -73.46 -8.8 -72.8 -8.49 -72.13 -8.18 -71.47 -7.89 -70.8 -8.71 -70.14 -8.49 -69.47 -8.26 -68.81 -8.06 -68.14 -7.85 -67.48 -7.67 -66.82 -7.48 -66.15 -7.31 -65.49 -7.15 -64.82 -7 -64.16 -6.85 -63.49 -6.7 -62.83 -6.57 -62.16 -6.43 -61.5 -6.3 -60.83 -6.16 -60.17 -6.03 -59.5 -5.89 -58.84 -5.75 -58.17 -5.6 -57.51 -5.45 -56.84 -5.29 -56.18 -5.12 -55.51 -4.94 -54.85 -4.75 -54.18 -4.55 -53.52 -4.34 -52.85 -4.11 -52.19 -3.88 -51.52 -3.62 -50.86 -3.37 -50.19 -3.1 -49.53 -2.84 -48.86 -2.56 -48.2 -2.28 -47.54 -2 -46.87 -1.71 -46.21 -1.43 -45.54 -1.14 -44.88 -0.86 -44.21 -0.58 -43.55 -0.31 -42.88 -0.03 -42.22 0.24 -41.55 0.51 -40.89 0.77 -40.22 1.02 -39.56 1.27 -38.89 1.51 -38.23 1.75 -37.56 1.97 -36.9 2.2 -36.23 2.41 -35.57 2.62 -34.9 2.82 -34.24 3.01 -33.57 -33.94 -32.91 -31.74 -32.24 -29.66 -31.58 -27.69 -30.91 -25.84 -30.25 -28.65 -29.58 -26.93 -28.92 -25.3 -28.26 -23.74 -27.59 -22.26 -26.93 -20.77 -26.26 -19.35 -25.6 -18 -24.93 -16.71 -24.27 -15.46 -23.6 -14.24 -22.94 -13.04 -22.27 -11.91 -21.61 -10.84 -20.94 -9.81 -20.28 -8.84 -19.61 -7.91 -18.95 -7.04 -18.28 -6.21 -17.62 -5.43 -16.95 -4.69 -16.29 -3.99 -15.62 -3.33 -14.96 -2.71 -14.29 -2.13 -13.63 -1.58 -12.96 -1.06 -12.3 -0.57 -11.63 -0.11 -10.97 0.33 -10.3 0.74 -9.64 1.12 -8.98 1.49 -8.31 1.83 -7.65 2.18 -6.98 2.51 -6.32 2.84 -5.65 3.15 -4.99 3.45 -4.32 3.73 -3.66 3.99 -2.99 4.24 -2.33 4.46 -1.66 4.68 -1 4.87 -0.33 5.06 0.33 5.23 1 5.39 1.66 5.54 2.33 5.68 2.99 5.81 3.66 5.93 4.32 6.04 4.99 6.15 5.65 6.25 6.32 6.34 6.98 6.43 7.65 6.51 8.31 6.59 8.98 -1.86 9.64 -1.26 10.3 -0.73 10.97 -0.26 11.63 0.17 12.3 0.59 12.96 0.98 13.63 1.39 14.29 1.77 14.96 2.13 15.62 2.47 16.29 2.78 16.95 3.08 17.62 3.36 18.28 3.63 18.95 3.88 19.61 4.11 20.28 4.33 20.94 4.54 21.61 4.73 22.27 4.93 22.94 5.11 23.6 5.28 24.27 5.44 24.93 5.59 25.6 5.73 26.26 5.87 26.93 5.99 27.59 6.1 28.26 6.21 28.92 6.31 29.58 6.41 30.25 6.49 30.91 6.58 31.58 6.65 32.24 6.73 32.91 6.79 33.57 6.86 34.24 6.92 34.9 6.98 35.57 7.03 36.23 7.08 36.9 7.13 37.56 7.18 38.23 7.22 38.89 7.26 39.56 7.29 40.22 7.33 40.89 7.36 41.55 7.39 42.22 7.42 42.88 7.44 43.55 7.46 44.21 7.49 44.88 7.51 45.54 7.53 46.21 7.54 46.87 7.56 47.54 7.57 48.2 7.59 48.86 7.6 49.53 7.61 50.19 7.62 50.86 7.64 51.52 7.65 52.19 7.65 52.85 7.66 53.52 7.67 54.18 7.68 54.85 7.69 55.51 7.69 56.18 7.7 56.84 7.7 57.51 7.71 58.17 7.71 58.84 7.72 59.5 7.72 60.17 7.73 60.83 7.73 61.5 7.73 62.16 7.74 62.83 7.74 63.49 7.74 64.16 7.74 64.82 7.75 65.49 7.75 66.15 7.75 66.82 7.75 67.48 7.75 68.14 7.76 68.81 7.76 69.47 7.76 70.14 7.76 70.8 7.76 71.47 7.76 72.13 7.76 72.8 7.76 73.46 7.76 74.13 7.77 74.79 7.77 75.46 7.77 76.12 7.77 76.79 7.77 77.45 7.77 78.12 7.77 78.78 7.77 79.45 7.77 80.11 7.77 80.78 7.77 81.44 7.77 82.11 7.77 82.77 7.77" class="primitive"/>
            </g>
          </g>
        </g>
        <g stroke-width="0.3" fill="#000000" fill-opacity="0.000" class="geometry" id="img-880c0d7b-32">
          <g class="color_RGB{N0f8}(1.0,0.0,0.0)" stroke-dasharray="none" stroke="#FF0000" id="img-880c0d7b-33">
            <g transform="translate(102.73,24.8)" id="img-880c0d7b-34">
              <path fill="none" d="M-82.77,37.36 L -82.11 37.85 -81.44 40.16 -80.78 35.9 -80.11 33.91 -79.45 32.57 -78.78 31.57 -78.12 30.74 -77.45 29.97 -76.79 29.2 -76.12 28.56 -75.46 27.92 -74.79 27.4 -74.13 26.9 -73.46 26.49 -72.8 26.16 -72.13 25.94 -71.47 26.17 -70.8 25.24 -70.14 24.62 -69.47 24.07 -68.81 23.62 -68.14 23.18 -67.48 22.79 -66.82 22.4 -66.15 22.04 -65.49 21.67 -64.82 21.32 -64.16 20.98 -63.49 20.64 -62.83 20.3 -62.16 19.96 -61.5 19.62 -60.83 19.27 -60.17 18.94 -59.5 18.6 -58.84 18.26 -58.17 17.93 -57.51 17.6 -56.84 17.26 -56.18 16.94 -55.51 16.62 -54.85 16.3 -54.18 16 -53.52 15.7 -52.85 15.43 -52.19 15.16 -51.52 14.92 -50.86 14.69 -50.19 14.5 -49.53 14.32 -48.86 14.17 -48.2 14.05 -47.54 13.96 -46.87 13.9 -46.21 13.86 -45.54 13.88 -44.88 13.91 -44.21 14.01 -43.55 14.13 -42.88 14.33 -42.22 14.56 -41.55 14.88 -40.89 15.26 -40.22 15.74 -39.56 16.34 -38.89 17.04 -38.23 18 -37.56 19.06 -36.9 20.74 -36.23 22.47 -35.57 26.23 -34.9 30.62 -34.24 44 -33.57 48 -32.91 27.82 -32.24 19.69 -31.58 15.33 -30.91 13 -30.25 8.95 -29.58 5.58 -28.92 2.53 -28.26 0.47 -27.59 -1.5 -26.93 -2.93 -26.26 -4.31 -25.6 -5.39 -24.93 -6.39 -24.27 -7.24 -23.6 -7.99 -22.94 -8.61 -22.27 -9.12 -21.61 -9.56 -20.94 -9.91 -20.28 -10.23 -19.61 -10.45 -18.95 -10.65 -18.28 -10.79 -17.62 -10.9 -16.95 -10.98 -16.29 -11.03 -15.62 -11.06 -14.96 -11.06 -14.29 -11.06 -13.63 -11.03 -12.96 -11.01 -12.3 -10.96 -11.63 -10.91 -10.97 -10.85 -10.3 -10.79 -9.64 -10.72 -8.98 -10.65 -8.31 -10.59 -7.65 -10.52 -6.98 -10.44 -6.32 -10.35 -5.65 -10.25 -4.99 -10.13 -4.32 -10.01 -3.66 -9.88 -2.99 -9.74 -2.33 -9.6 -1.66 -9.45 -1 -9.29 -0.33 -9.13 0.33 -8.95 1 -8.77 1.66 -8.58 2.33 -8.36 2.99 -8.14 3.66 -7.87 4.32 -7.59 4.99 -7.21 5.65 -6.81 6.32 -6.19 6.98 -5.32 7.65 -3.76 8.31 -0.2 8.98 -2.96 9.64 -5.6 10.3 -7.27 10.97 -8.32 11.63 -9.13 12.3 -9.69 12.96 -10.21 13.63 -10.56 14.29 -10.89 14.96 -11.12 15.62 -11.33 16.29 -11.49 16.95 -11.63 17.62 -11.74 18.28 -11.82 18.95 -11.9 19.61 -11.95 20.28 -12 20.94 -12.09 21.61 -12.17 22.27 -12.18 22.94 -12.19 23.6 -12.18 24.27 -12.18 24.93 -12.16 25.6 -12.15 26.26 -12.13 26.93 -12.11 27.59 -12.08 28.26 -12.06 28.92 -12.03 29.58 -12 30.25 -11.97 30.91 -11.95 31.58 -11.92 32.24 -11.89 32.91 -11.86 33.57 -11.84 34.24 -11.81 34.9 -11.79 35.57 -11.76 36.23 -11.73 36.9 -11.71 37.56 -11.68 38.23 -11.66 38.89 -11.63 39.56 -11.61 40.22 -11.59 40.89 -11.56 41.55 -11.54 42.22 -11.52 42.88 -11.5 43.55 -11.48 44.21 -11.46 44.88 -11.44 45.54 -11.43 46.21 -11.41 46.87 -11.39 47.54 -11.38 48.2 -11.37 48.86 -11.35 49.53 -11.34 50.19 -11.33 50.86 -11.32 51.52 -11.3 52.19 -11.29 52.85 -11.28 53.52 -11.27 54.18 -11.27 54.85 -11.26 55.51 -11.25 56.18 -11.24 56.84 -11.23 57.51 -11.23 58.17 -11.22 58.84 -11.21 59.5 -11.21 60.17 -11.2 60.83 -11.2 61.5 -11.19 62.16 -11.19 62.83 -11.18 63.49 -11.18 64.16 -11.17 64.82 -11.17 65.49 -11.17 66.15 -11.16 66.82 -11.16 67.48 -11.16 68.14 -11.15 68.81 -11.15 69.47 -11.15 70.14 -11.15 70.8 -11.14 71.47 -11.14 72.13 -11.14 72.8 -11.14 73.46 -11.14 74.13 -11.13 74.79 -11.13 75.46 -11.13 76.12 -11.13 76.79 -11.13 77.45 -11.13 78.12 -11.13 78.78 -11.13 79.45 -11.12 80.11 -11.12 80.78 -11.12 81.44 -11.12 82.11 -11.12 82.77 -11.12" class="primitive"/>
            </g>
          </g>
        </g>
      </g>
    </g>
  </g>
  <g class="guide ylabels" font-size="2.82" font-family="'PT Sans Caption','Helvetica Neue','Helvetica',sans-serif" fill="#6C606B" id="img-880c0d7b-35">
    <g transform="translate(16.96,80.32)" id="img-880c0d7b-36">
      <g class="primitive">
        <text text-anchor="end" dy="0.35em">0</text>
      </g>
    </g>
    <g transform="translate(16.96,54.69)" id="img-880c0d7b-37">
      <g class="primitive">
        <text text-anchor="end" dy="0.35em">10</text>
      </g>
    </g>
    <g transform="translate(16.96,29.06)" id="img-880c0d7b-38">
      <g class="primitive">
        <text text-anchor="end" dy="0.35em">20</text>
      </g>
    </g>
  </g>
  <g font-size="3.88" font-family="'PT Sans','Helvetica Neue','Helvetica',sans-serif" fill="#564A55" stroke="#000000" stroke-opacity="0.000" id="img-880c0d7b-39">
    <g transform="translate(8.81,44.46)" id="img-880c0d7b-40">
      <g class="primitive">
        <text text-anchor="middle" dy="0.35em" transform="rotate(-90,0, 2)">log₁₀(f(E)) (e/atom)</text>
      </g>
    </g>
  </g>
  <g font-size="3.88" font-family="'PT Sans','Helvetica Neue','Helvetica',sans-serif" fill="#564A55" stroke="#000000" stroke-opacity="0.000" id="img-880c0d7b-41">
    <g transform="translate(102.73,5)" id="img-880c0d7b-42">
      <g class="primitive">
        <text text-anchor="middle" dy="0.6em">Z = 26</text>
      </g>
    </g>
  </g>
</g>
<defs>
  <clipPath id="img-880c0d7b-15">
    <path d="M17.96,10.61 L 187.5 10.61 187.5 82.32 17.96 82.32" />
  </clipPath>
</defs>
</svg>
